<svg width="468" height="468" viewBox="0 0 468 468" fill="none" xmlns="http://www.w3.org/2000/svg">
<rect width="468" height="468" fill="#F1F0FA"/>
<path d="M288.323 105.708C295.438 108.706 302.351 112.329 308.87 116.474C315.444 120.64 321.909 110.426 315.386 106.275C308.292 101.769 300.775 97.8301 293.046 94.5709C285.875 91.5748 281.096 102.67 288.323 105.708Z" fill="#372E2C"/>
<path d="M195.679 99.9659C196.22 99.9659 196.761 99.8929 197.284 99.7491C204.738 97.7127 212.416 96.2902 220.109 95.5204C227.884 94.7458 226.673 82.6467 218.896 83.4871C210.504 84.3299 202.154 85.8767 194.074 88.0861C187.563 89.8667 188.912 99.9659 195.679 99.9659Z" fill="#372E2C"/>
<path d="M243.383 95.0755C251.122 95.5725 258.846 96.7222 266.342 98.4882C273.908 100.298 276.599 88.4767 269.131 86.7229C260.956 84.7961 252.554 83.5489 244.16 83.0081C236.417 82.6452 235.55 94.5713 243.383 95.0755Z" fill="#372E2C"/>
<path d="M343.255 147.369C348.09 153.453 357.607 145.948 352.757 139.856C347.54 133.294 341.73 127.121 335.489 121.507C329.719 116.311 321.529 125.246 327.365 130.48C333.107 135.649 338.456 141.33 343.255 147.369Z" fill="#372E2C"/>
<path d="M365.559 187.855C368.117 195.199 379.575 191.233 377.01 183.877C374.25 175.97 370.794 168.231 366.731 160.877C362.997 154.108 352.284 159.791 356.11 166.706C359.84 173.466 363.016 180.581 365.559 187.855Z" fill="#372E2C"/>
<path d="M95.4672 196.811C98.1442 196.811 100.471 195.097 101.26 192.544C103.532 185.19 106.453 177.97 109.936 171.081C113.488 164.054 102.621 158.726 99.1064 165.634C95.3137 173.132 92.1398 180.985 89.6722 188.983C88.4957 192.795 91.4991 196.811 95.4672 196.811Z" fill="#372E2C"/>
<path d="M383.252 208.199C381.971 200.582 369.977 202.418 371.292 210.201C372.437 216.999 372.893 232.258 372.893 233.184C372.893 310.26 311.318 372.965 235.633 372.965C184.876 372.965 137.522 343.612 113.965 297.874L126.419 304.387C133.301 308.002 138.998 297.325 132.056 293.681L104.258 279.137C100.725 277.293 96.1533 279.529 95.464 283.453L90.1099 314.05C88.7872 321.628 100.735 323.682 102.055 316.128L104.004 305.001C129.871 353.753 181.144 385.054 235.633 385.054C316.95 385.054 383.944 317.792 384.97 235.118H384.955C385.247 231.975 384.4 215.009 383.252 208.199C384.4 215.009 382.702 204.927 383.252 208.199C384.4 215.009 381.974 200.582 383.252 208.199Z" fill="#372E2C"/>
<path d="M95.1259 233.301C95.1283 227.221 95.5278 221.112 96.3146 215.139C97.3401 207.342 85.297 205.883 84.2886 213.566C83.436 220.05 83.0024 226.688 83 233.297C83 236.631 85.7209 239.345 89.0629 239.345C92.405 239.345 95.1259 236.631 95.1259 233.301C95.1283 227.221 95.1259 236.631 95.1259 233.301Z" fill="#372E2C"/>
<path d="M151.913 120.262C153.148 120.262 154.337 119.892 155.348 119.195C161.74 114.806 168.524 110.935 175.505 107.693C182.598 104.399 177.451 93.4452 170.385 96.7336C162.77 100.268 155.397 104.477 148.469 109.237C143.734 112.494 146.196 120.262 151.913 120.262Z" fill="#372E2C"/>
<path d="M117.169 153.782C119.091 153.782 120.918 152.861 122.056 151.321C126.637 145.115 131.777 139.247 137.331 133.878C142.953 128.456 134.5 119.764 128.891 125.196C122.864 131.021 117.279 137.398 112.292 144.153C109.425 148.028 112.375 153.782 117.169 153.782Z" fill="#372E2C"/>
<path d="M174.387 143.023C173.028 143.023 171.922 144.127 171.922 145.486V164.518C171.922 165.877 173.028 166.983 174.387 166.983H181.872C183.232 166.983 184.335 165.877 184.335 164.518V145.486C184.335 144.127 183.232 143.023 181.872 143.023H174.387Z" fill="#87CCE3"/>
<path d="M255.416 143.023C254.057 143.023 252.953 144.127 252.953 145.486V164.518C252.953 165.877 254.057 166.983 255.416 166.983H262.901C264.261 166.983 265.366 165.877 265.366 164.518V145.486C265.366 144.127 264.261 143.023 262.901 143.023H255.416Z" fill="#87CCE3"/>
<path d="M148.992 183.625H288.357V161.056C288.357 159.487 286.986 158.211 285.302 158.211H273.03V162.023C273.03 168.961 267.386 174.602 260.451 174.602H258.023C251.088 174.602 245.446 168.958 245.446 162.023V158.211H191.903V162.023C191.903 168.961 186.259 174.602 179.324 174.602H176.898C169.96 174.602 164.319 168.958 164.319 162.023V158.211H152.047C150.364 158.211 148.992 159.487 148.992 161.056V183.625Z" fill="#87CCE3"/>
<path d="M180.553 213.664H166.539V227.912H180.553V213.664Z" fill="#87CCE3"/>
<path d="M180.553 259.227H166.539V273.472H180.553V259.227Z" fill="#87CCE3"/>
<path d="M270.881 269.823V259.227H256.867V273.472H266.942C267.164 273.235 267.402 273.016 267.629 272.785C267.719 272.692 267.812 272.602 267.904 272.509C268.496 271.92 269.108 271.35 269.741 270.802C269.833 270.722 269.924 270.644 270.016 270.566C270.306 270.317 270.584 270.059 270.881 269.823Z" fill="#87CCE3"/>
<path d="M225.678 259.227H211.664V273.472H225.678V259.227Z" fill="#87CCE3"/>
<path d="M148.992 193.68V290.679C148.992 292.248 150.364 293.524 152.047 293.524H257.36C257.84 290.039 258.834 286.723 260.22 283.623H251.743C248.949 283.623 246.686 281.357 246.686 278.566V254.207C246.686 251.413 248.951 249.15 251.743 249.15H275.873C278.667 249.15 280.93 251.415 280.93 254.207V264.211C283.305 263.339 285.782 262.681 288.357 262.326V193.68H148.992ZM190.665 278.563C190.665 281.357 188.4 283.62 185.609 283.62H161.479C158.685 283.62 156.422 281.355 156.422 278.563V254.204C156.422 251.41 158.687 249.147 161.479 249.147H185.609C188.402 249.147 190.665 251.413 190.665 254.204V278.563ZM190.665 233.002C190.665 235.796 188.4 238.059 185.609 238.059H161.479C158.685 238.059 156.422 235.794 156.422 233.002V208.641C156.422 205.847 158.687 203.584 161.479 203.584H185.609C188.402 203.584 190.665 205.849 190.665 208.641V233.002ZM235.798 278.563C235.798 281.357 233.532 283.62 230.741 283.62H206.611C203.817 283.62 201.554 281.355 201.554 278.563V254.204C201.554 251.41 203.819 249.147 206.611 249.147H230.741C233.535 249.147 235.798 251.413 235.798 254.204V278.563ZM235.798 233.002C235.798 235.796 233.532 238.059 230.741 238.059H206.611C203.817 238.059 201.554 235.794 201.554 233.002V208.641C201.554 205.847 203.819 203.584 206.611 203.584H230.741C233.535 203.584 235.798 205.849 235.798 208.641V233.002ZM280.93 233.002C280.93 235.796 278.664 238.059 275.873 238.059H251.743C248.949 238.059 246.686 235.794 246.686 233.002V208.641C246.686 205.847 248.951 203.584 251.743 203.584H275.873C278.667 203.584 280.93 205.849 280.93 208.641V233.002Z" fill="#87CCE3"/>
<path d="M270.881 213.664H256.867V227.912H270.881V213.664Z" fill="#87CCE3"/>
<path d="M225.678 213.664H211.664V227.912H225.678V213.664Z" fill="#87CCE3"/>
<path d="M293.225 272.055C278.785 272.055 267.039 283.935 267.039 298.54C267.039 313.146 278.787 325.028 293.225 325.028C307.667 325.028 319.413 313.146 319.413 298.54C319.413 283.935 307.667 272.055 293.225 272.055ZM298.284 298.54C298.284 299.726 297.87 300.871 297.108 301.782L288.809 311.721C284.619 316.739 276.875 310.235 281.045 305.236L288.17 296.703V283.871C288.17 281.077 290.436 278.814 293.227 278.814C296.021 278.814 298.284 281.08 298.284 283.871V298.54Z" fill="#211715"/>
</svg>
