<svg width="68" height="68" viewBox="0 0 68 68" fill="none" xmlns="http://www.w3.org/2000/svg">
<g filter="url(#filter0_i_1874_10403)">
<circle cx="34" cy="34" r="34" fill="url(#paint0_linear_1874_10403)"/>
</g>
<g clip-path="url(#clip0_1874_10403)">
<path d="M24.4697 42.7604C24.9268 42.7604 25.2974 42.3994 25.2974 41.9543C25.2974 41.509 24.9268 41.1482 24.4697 41.1482C24.0126 41.1482 23.6421 41.509 23.6421 41.9543C23.6421 42.3994 24.0126 42.7604 24.4697 42.7604Z" fill="white"/>
<path fill-rule="evenodd" clip-rule="evenodd" d="M24.4697 41.3437C24.1235 41.3437 23.8428 41.617 23.8428 41.9543C23.8428 42.2914 24.1235 42.5649 24.4697 42.5649C24.816 42.5649 25.0966 42.2914 25.0966 41.9543C25.0966 41.617 24.816 41.3437 24.4697 41.3437ZM25.2974 41.9543C25.2974 42.3994 24.9268 42.7604 24.4697 42.7604C24.0126 42.7604 23.6421 42.3994 23.6421 41.9543C23.6421 41.509 24.0126 41.1482 24.4697 41.1482C24.9268 41.1482 25.2974 41.509 25.2974 41.9543Z" fill="white"/>
<path d="M28.1998 42.7604C28.6569 42.7604 29.0275 42.3994 29.0275 41.9543C29.0275 41.509 28.6569 41.1482 28.1998 41.1482C27.7427 41.1482 27.3722 41.509 27.3722 41.9543C27.3722 42.3994 27.7427 42.7604 28.1998 42.7604Z" fill="white"/>
<path fill-rule="evenodd" clip-rule="evenodd" d="M28.1998 41.3437C27.8536 41.3437 27.5729 41.617 27.5729 41.9543C27.5729 42.2914 27.8536 42.5649 28.1998 42.5649C28.5461 42.5649 28.8267 42.2914 28.8267 41.9543C28.8267 41.617 28.5461 41.3437 28.1998 41.3437ZM29.0275 41.9543C29.0275 42.3994 28.6569 42.7604 28.1998 42.7604C27.7427 42.7604 27.3722 42.3994 27.3722 41.9543C27.3722 41.509 27.7427 41.1482 28.1998 41.1482C28.6569 41.1482 29.0275 41.509 29.0275 41.9543Z" fill="white"/>
<path d="M33.3558 40.7222L33.2945 40.6242C33.2038 40.4784 33.1148 40.3306 33.0247 40.1816C32.5443 39.3837 32.0474 38.5594 31.2376 37.9508C30.737 37.5742 30.0528 37.3671 29.3111 37.3671C29.0738 37.3671 28.8327 37.3881 28.6256 37.4277L28.3551 37.4272C27.1114 36.8194 25.5571 36.8194 24.3131 37.4277L24.0741 37.4304C23.0916 37.257 22.0914 37.4538 21.4309 37.9511C20.6207 38.5601 20.1242 39.3849 19.6342 40.1979C19.5479 40.3417 19.4616 40.4841 19.3743 40.6245L19.3126 40.7228C18.5922 41.8744 17.3868 43.8022 18.371 45.3166C18.7952 45.9693 19.5448 46.2207 20.129 46.3948C20.2697 47.3174 20.6453 48.1434 21.1932 48.7318C21.8021 49.3854 22.853 49.7263 23.2762 49.8426C24.4709 50.1701 25.6841 50.3435 26.785 50.3435C28.4715 50.3435 29.8891 49.9533 30.9989 49.184C31.7694 48.6497 32.3388 47.6132 32.5333 46.3965C33.1196 46.222 33.8726 45.9695 34.2969 45.3166C35.2816 43.8015 34.0759 41.8738 33.3558 40.7222ZM25.931 45.1892C25.9923 45.1892 26.0529 45.1905 26.142 45.1922L26.3166 45.1952L26.557 45.1915C26.6159 45.1905 26.6765 45.1892 26.7378 45.1892C27.048 45.1892 27.1483 45.2249 27.1576 45.2213C27.1603 45.2329 27.1644 45.2602 27.1631 45.3029C27.1614 45.3632 27.1566 45.5237 26.8278 45.7774C26.6833 45.8889 26.5368 45.9909 26.3909 46.0816C26.294 46.0176 26.1957 45.9579 26.0985 45.8993C25.6112 45.605 25.5115 45.5043 25.5057 45.3029C25.5047 45.2652 25.5074 45.2402 25.5026 45.2358C25.5328 45.2225 25.6383 45.1892 25.931 45.1892ZM26.9723 47.1605C27.3148 47.0031 27.4552 46.8381 27.6051 46.7226C28.1239 46.3227 28.39 45.8565 28.405 45.337C28.4163 44.9514 28.2986 44.6349 28.0606 44.3965C27.6301 43.9648 27.0021 43.9773 26.5008 43.9872C26.3865 43.9899 26.2844 43.9899 26.1697 43.9872C25.6694 43.9773 25.0414 43.9652 24.611 44.3965C24.373 44.6342 24.2576 44.9507 24.2686 45.3366C24.2942 46.2278 24.9305 46.6466 25.3897 46.9244C25.4845 46.9812 25.6026 47.0364 25.6026 47.0918V49.0812C24.9178 49.0106 24.2641 48.8768 23.5556 48.6823C23.0639 48.5476 22.4034 48.2671 22.0815 47.9216C21.5785 47.3817 21.2925 46.5162 21.2925 45.607C21.2925 44.9784 21.4453 44.3748 21.7274 43.8481L23.3937 40.0142C23.8919 38.8931 25.0465 38.1685 26.3327 38.1685C27.6188 38.1685 28.7725 38.8916 29.269 40.0095L30.9222 43.8214L30.9417 43.8608C31.2164 44.3728 31.3619 44.977 31.3619 45.6074C31.3619 46.5029 30.9928 47.7166 30.2908 48.2028C29.4313 48.7985 28.3421 49.1126 26.9723 49.1366V47.1605ZM33.2518 44.6719C33.1193 44.876 32.8531 45.0107 32.5759 45.1127C32.5145 44.4731 32.334 43.8581 32.0532 43.3306L30.4072 39.5352C30.2634 39.211 30.0799 38.9089 29.8597 38.6318C30.0699 38.6788 30.2911 38.7618 30.4808 38.9042C31.1017 39.3708 31.5365 40.0932 31.957 40.7915L31.9769 40.8249C32.0632 40.968 32.1488 41.1101 32.2361 41.2498L32.2981 41.3485C32.8695 42.2617 33.8253 43.7891 33.2518 44.6719ZM22.8095 38.6313C22.5883 38.9099 22.404 39.214 22.2592 39.5403L20.6231 43.3188C20.3365 43.8591 20.155 44.4751 20.0934 45.1127C19.816 45.0105 19.5503 44.876 19.4174 44.6719C18.8438 43.7894 19.7995 42.2617 20.3704 41.3492L20.432 41.2501C20.5258 41.0997 20.6186 40.9459 20.7111 40.7919C21.1319 40.0932 21.5672 39.3708 22.1873 38.9046C22.3773 38.7618 22.5989 38.6788 22.8095 38.6313Z" fill="white"/>
<path fill-rule="evenodd" clip-rule="evenodd" d="M31.9565 40.7915L31.9763 40.8249L31.9829 40.8357C32.0669 40.9749 32.1503 41.1133 32.2353 41.2493C32.2354 41.2495 32.2352 41.2492 32.2353 41.2493L32.2975 41.3485C32.5479 41.7486 32.8724 42.2672 33.1092 42.7972C33.1217 42.825 33.134 42.8529 33.1459 42.8808C33.4253 43.5337 33.5601 44.1963 33.2512 44.6719C33.1527 44.8233 32.9804 44.9371 32.7847 45.027C32.7171 45.0582 32.6465 45.0865 32.5753 45.1127C32.5683 45.0399 32.5597 44.9674 32.5497 44.8953C32.5136 44.636 32.4578 44.382 32.3838 44.1376C32.3838 44.1378 32.3837 44.1375 32.3838 44.1376C32.3 43.8614 32.1926 43.597 32.0638 43.3515C32.0611 43.3466 32.0585 43.3415 32.0558 43.3364C32.0548 43.3344 32.0537 43.3326 32.0527 43.3306L30.4066 39.5352C30.406 39.5338 30.4053 39.5322 30.4047 39.5308C30.3552 39.4196 30.301 39.3109 30.2422 39.205C30.2423 39.2051 30.2422 39.205 30.2422 39.205C30.1879 39.1071 30.1295 39.0112 30.0675 38.9179C30.0022 38.8198 29.9327 38.7244 29.8591 38.6318C29.9759 38.6578 30.0961 38.6951 30.2124 38.7475C30.3054 38.7893 30.396 38.8409 30.4803 38.9042C30.6414 39.0253 30.7907 39.1643 30.9298 39.315C30.9309 39.3163 30.932 39.3174 30.9331 39.3186C31.3279 39.7475 31.6462 40.2764 31.9565 40.7915ZM30.9843 37.7838C31.0099 37.7986 31.0351 37.8138 31.06 37.8294C31.1207 37.8673 31.1794 37.9074 31.2357 37.9496C31.2358 37.9498 31.2355 37.9495 31.2357 37.9496C31.2359 37.9499 31.2368 37.9505 31.237 37.9508C32.0469 38.5594 32.5437 39.3837 33.0241 40.1816L33.0429 40.2126C33.0432 40.2132 33.0435 40.2136 33.0438 40.2142C33.0449 40.216 33.0461 40.218 33.0473 40.2199C33.1287 40.3547 33.2096 40.4886 33.2918 40.6206C33.2924 40.6215 33.2928 40.6222 33.2932 40.6229C33.2935 40.6233 33.2937 40.6237 33.294 40.6242L33.3556 40.7226C34.0756 41.8741 35.2806 43.801 34.2967 45.3159C33.9821 45.8 33.4864 46.0647 33.0124 46.24C32.9287 46.2709 32.8457 46.2991 32.7644 46.3253C32.6851 46.3506 32.6076 46.3743 32.5328 46.3965C32.5185 46.4856 32.5023 46.5737 32.4841 46.6607C32.2544 47.7592 31.7153 48.6837 31.0041 49.18C31.0042 49.1798 31.004 49.18 31.0041 49.18C31.0023 49.1813 31.0002 49.1827 30.9984 49.184C29.9488 49.9116 28.6239 50.3001 27.0566 50.3401C27.0358 50.3407 27.0149 50.3411 26.994 50.3415C26.9247 50.3429 26.8548 50.3435 26.7845 50.3435C26.3753 50.3435 25.9507 50.3196 25.5172 50.2727C25.5025 50.2711 25.4877 50.2694 25.4729 50.2678C24.7538 50.1875 24.0112 50.0443 23.2756 49.8426C23.2593 49.8382 23.2421 49.8334 23.2241 49.8283C23.2242 49.8283 23.2239 49.8281 23.2241 49.8283C22.772 49.6995 21.7779 49.36 21.1927 48.7318C21.1884 48.7271 21.1841 48.7225 21.1799 48.7179C20.6914 48.1875 20.3416 47.4671 20.1755 46.6583C20.1577 46.5715 20.1419 46.4836 20.1284 46.3948C20.0491 46.3712 19.9667 46.3461 19.8824 46.3187C19.8075 46.2945 19.7311 46.2685 19.6542 46.24C19.1812 46.0653 18.6865 45.8021 18.3711 45.3176C17.3874 43.8037 18.5906 41.8761 19.3112 40.7243C19.3115 40.7238 19.3118 40.7233 19.3121 40.7228L19.3731 40.6254C19.3731 40.6253 19.3731 40.6254 19.3731 40.6254C19.4604 40.4851 19.5473 40.3415 19.6336 40.1979L19.6353 40.1951C19.6376 40.1912 19.6399 40.1876 19.6421 40.1837C19.6425 40.1832 19.6428 40.1826 19.6432 40.182C20.1301 39.3741 20.6254 38.5561 21.4303 37.9511C21.4866 37.9087 21.5463 37.8679 21.6073 37.8299C21.6326 37.8142 21.6582 37.7989 21.6842 37.7839C21.9366 37.639 22.2238 37.5302 22.5313 37.4605C22.9622 37.3626 23.433 37.3413 23.9045 37.4042C23.9609 37.4117 24.0172 37.4205 24.0735 37.4304L24.3125 37.4277C24.8221 37.1786 25.3836 37.0315 25.9546 36.9865C26.0802 36.9765 26.2061 36.9716 26.3321 36.9714C26.4592 36.9714 26.5862 36.9764 26.7128 36.9863C27.2837 37.0314 27.8451 37.1783 28.3545 37.4272L28.625 37.4277C28.6693 37.4192 28.7151 37.4117 28.762 37.4049C28.935 37.38 29.1239 37.3671 29.3105 37.3671C29.5967 37.3671 29.8742 37.3979 30.136 37.4574C30.4447 37.5275 30.7314 37.6376 30.9843 37.7838ZM28.0075 38.616C27.9397 38.5765 27.8703 38.5394 27.7994 38.5048C27.3557 38.2879 26.8549 38.1685 26.3321 38.1685C25.8106 38.1685 25.3106 38.2877 24.8673 38.5041C24.7975 38.5383 24.729 38.5748 24.6621 38.6136C24.5462 38.6809 24.435 38.7552 24.3291 38.8361C24.3254 38.8387 24.3217 38.8416 24.318 38.8444C24.1202 38.9968 23.9412 39.1721 23.7857 39.3674C23.631 39.562 23.4995 39.7762 23.3961 40.0074C23.3951 40.0096 23.3941 40.0119 23.3931 40.0142L21.7268 43.8481C21.7231 43.855 21.7194 43.862 21.7158 43.869C21.4978 44.2824 21.3591 44.7426 21.311 45.2245C21.3096 45.2378 21.3084 45.2513 21.3072 45.2646C21.2971 45.3777 21.292 45.492 21.292 45.607C21.292 45.8148 21.3069 46.0203 21.3359 46.22C21.3548 46.3496 21.3795 46.4767 21.41 46.6007C21.5381 47.122 21.7673 47.585 22.0809 47.9216C22.0852 47.9262 22.0895 47.9308 22.0939 47.9354C22.094 47.9354 22.0939 47.9353 22.0939 47.9354C22.4204 48.2746 23.0699 48.5494 23.5551 48.6823C23.5723 48.6871 23.5896 48.6918 23.6069 48.6965C23.6072 48.6966 23.6065 48.6963 23.6069 48.6965C23.7898 48.7461 23.9702 48.7918 24.1475 48.8333C24.6091 48.9411 25.0569 49.0209 25.5172 49.0722C25.5455 49.0753 25.5737 49.0783 25.6021 49.0812V47.0918C25.6021 47.0612 25.5658 47.0305 25.5172 46.9996C25.4938 46.9846 25.4676 46.9697 25.4412 46.9547C25.4376 46.9526 25.4339 46.9504 25.4303 46.9485C25.4303 46.9485 25.4303 46.9485 25.4303 46.9485C25.4164 46.9405 25.4025 46.9324 25.3891 46.9244C25.1203 46.7619 24.7909 46.5509 24.5588 46.2252C24.3943 45.9946 24.2787 45.7063 24.268 45.3369C24.268 45.3363 24.268 45.3354 24.2679 45.3349C24.2574 44.9498 24.3728 44.6339 24.6104 44.3965C24.7249 44.2817 24.8534 44.1984 24.9897 44.1381C25.2871 44.0063 25.6219 43.9841 25.9305 43.9841C26.0102 43.9841 26.0881 43.9856 26.1632 43.9871C26.1639 43.9871 26.1645 43.9871 26.1652 43.9872C26.1665 43.9872 26.1678 43.9872 26.1691 43.9872C26.213 43.9882 26.255 43.9889 26.2966 43.989C26.3104 43.9892 26.3241 43.9892 26.3379 43.9892C26.391 43.9892 26.4441 43.9885 26.5002 43.9872C26.5117 43.9871 26.5232 43.9868 26.5348 43.9865C26.5356 43.9865 26.5363 43.9865 26.537 43.9865C26.5708 43.9858 26.6051 43.9852 26.6398 43.9848C26.6719 43.9844 26.7044 43.9841 26.7372 43.9841C27.1885 43.9838 27.6952 44.0307 28.06 44.3965C28.2132 44.5499 28.3166 44.7358 28.3678 44.9517C28.3961 45.0708 28.4085 45.1993 28.4045 45.3363C28.4045 45.3361 28.4045 45.3366 28.4045 45.3363C28.4045 45.3376 28.4044 45.3394 28.4044 45.3407C28.3881 45.8588 28.1221 46.3237 27.6046 46.7226C27.6029 46.7239 27.6013 46.7252 27.5997 46.7265C27.5999 46.7263 27.5994 46.7266 27.5997 46.7265C27.5654 46.7532 27.5307 46.783 27.4946 46.8142C27.3905 46.904 27.2683 47.0094 27.0671 47.1139C27.0636 47.1158 27.0601 47.1176 27.0566 47.1193C27.0298 47.1332 27.0015 47.1469 26.9718 47.1605V49.1366C27.0002 49.1361 27.0285 49.1355 27.0566 49.1347C27.5491 49.1216 28.0049 49.0705 28.4263 48.9815C29.1402 48.8309 29.7555 48.5721 30.2841 48.207C30.2842 48.2069 30.2841 48.207 30.2841 48.207C30.2861 48.2056 30.2882 48.2042 30.2902 48.2028C30.7683 47.8716 31.0921 47.2029 31.2499 46.5273C31.2745 46.4217 31.2952 46.3159 31.3117 46.2114C31.3447 46.0023 31.3613 45.7977 31.3613 45.6074C31.3613 45.4933 31.3566 45.3799 31.3471 45.268C31.3459 45.2536 31.3446 45.2391 31.3432 45.2248C31.2974 44.7437 31.1651 44.2867 30.9541 43.8852C30.9498 43.877 30.9455 43.8689 30.9412 43.8608L30.9217 43.8214L29.2684 40.0095C29.2677 40.0078 29.2669 40.0061 29.2662 40.0044C29.1638 39.775 29.0337 39.5624 28.8805 39.3693C28.7248 39.1729 28.5452 38.9967 28.3465 38.8437C28.2388 38.7608 28.1256 38.6849 28.0075 38.616ZM27.1561 45.2214C27.1565 45.2214 27.1558 45.2215 27.1561 45.2214C27.1531 45.2217 27.146 45.2204 27.1338 45.2183C27.111 45.214 27.0701 45.2067 27.0043 45.2003C26.9902 45.199 26.9749 45.1976 26.9584 45.1965C26.9571 45.1963 26.9558 45.1963 26.9545 45.1962C26.8974 45.1921 26.8258 45.1892 26.7372 45.1892C26.6871 45.1892 26.6375 45.1901 26.5889 45.1909C26.5781 45.1911 26.5672 45.1914 26.5564 45.1915L26.5482 45.1916L26.316 45.1952L26.1414 45.1922C26.1408 45.1922 26.1402 45.1922 26.1396 45.1922C26.1283 45.1919 26.1174 45.1918 26.1069 45.1915C26.036 45.1902 25.9835 45.1892 25.9305 45.1892C25.8848 45.1892 25.8437 45.1899 25.8067 45.1914C25.772 45.1928 25.7408 45.1946 25.713 45.1969C25.5808 45.2075 25.5231 45.2266 25.5021 45.2358C25.5029 45.2366 25.5035 45.238 25.5039 45.2398C25.5041 45.2408 25.5043 45.2418 25.5045 45.2429C25.5046 45.2438 25.5046 45.2445 25.5047 45.2455C25.5051 45.2511 25.5051 45.2591 25.505 45.2689C25.5049 45.2783 25.5048 45.2898 25.5052 45.3027C25.5087 45.424 25.5464 45.5093 25.6821 45.6216C25.7431 45.6722 25.824 45.7284 25.9305 45.796C25.9679 45.8197 26.0085 45.8449 26.0525 45.8716C26.0544 45.8728 26.0563 45.8741 26.0583 45.8752C26.0712 45.8831 26.0844 45.8911 26.0979 45.8993C26.1076 45.9051 26.1174 45.911 26.1271 45.9168C26.1275 45.9171 26.1267 45.9166 26.1271 45.9168C26.1471 45.929 26.1684 45.9419 26.1884 45.9541C26.226 45.977 26.2635 46.0003 26.301 46.0239C26.3106 46.03 26.3201 46.0361 26.3297 46.0422C26.3499 46.0552 26.3702 46.0683 26.3903 46.0816C26.4053 46.0724 26.4203 46.0629 26.4352 46.0534C26.4706 46.0309 26.506 46.0076 26.5414 45.9838C26.5505 45.9776 26.5597 45.9715 26.5689 45.9651C26.5693 45.9649 26.5698 45.9646 26.5703 45.9643C26.626 45.9262 26.6817 45.8865 26.7372 45.8454C26.7673 45.8232 26.7973 45.8005 26.8273 45.7774C26.8292 45.776 26.8311 45.7746 26.833 45.773C26.8333 45.7729 26.8327 45.7733 26.833 45.773C27.1552 45.5222 27.1608 45.3629 27.1625 45.3029C27.1632 45.2802 27.1624 45.2613 27.161 45.2475C27.161 45.2476 27.161 45.2473 27.161 45.2475C27.1599 45.2357 27.1573 45.2268 27.1561 45.2214ZM25.9435 44.651C25.9435 44.651 25.9429 44.6516 25.9417 44.6527L25.9435 44.651ZM20.5908 43.3799C20.4687 43.6189 20.3669 43.872 20.2866 44.1348C20.2867 44.1345 20.2865 44.1351 20.2866 44.1348C20.2115 44.381 20.1549 44.6366 20.1185 44.896C20.1084 44.968 20.0998 45.0402 20.0928 45.1127C20.0169 45.0848 19.942 45.0544 19.8703 45.0208C19.68 44.9317 19.5134 44.8202 19.4168 44.6719C19.1063 44.1936 19.2444 43.5255 19.5272 42.869C19.5391 42.8413 19.5513 42.8136 19.5637 42.786C19.7998 42.2606 20.1205 41.7477 20.3688 41.3508C20.3689 41.3506 20.3687 41.3511 20.3688 41.3508C20.369 41.3505 20.3696 41.3495 20.3698 41.3492L20.4314 41.2501C20.4312 41.2505 20.4317 41.2498 20.4314 41.2501C20.5217 41.1053 20.6118 40.9562 20.7008 40.8081C20.7012 40.8075 20.7015 40.8068 20.7019 40.8062C20.7048 40.8014 20.7077 40.7967 20.7105 40.7919C21.02 40.2781 21.3373 39.7514 21.7302 39.3232C21.7314 39.3218 21.7327 39.3206 21.7339 39.3191C21.874 39.1668 22.0238 39.0272 22.1862 38.9049C22.2693 38.8426 22.3592 38.791 22.4509 38.7494C22.5687 38.6959 22.6905 38.658 22.8089 38.6313C22.7345 38.7251 22.6643 38.8216 22.5983 38.9211C22.5369 39.0136 22.4792 39.1083 22.4253 39.2055C22.4253 39.2055 22.4253 39.2057 22.4253 39.2055C22.3657 39.313 22.3106 39.4235 22.2603 39.5365C22.2597 39.5377 22.2592 39.539 22.2586 39.5403L20.6225 43.3188C20.6118 43.3391 20.6012 43.3593 20.5908 43.3799Z" fill="white"/>
<path d="M44.7081 25.0042C44.4664 24.708 44.0992 24.5383 43.6774 24.5383C43.6261 24.547 43.5765 24.5416 43.5292 24.5463C43.5446 24.1084 43.6013 23.6835 43.6565 23.271C43.7181 22.8144 43.7758 22.3832 43.7758 21.9583C43.7758 20.9934 43.1874 19.5117 41.5766 19.2925C41.3438 18.8163 40.1901 17 36.14 17C35.5071 17 34.824 17.0457 34.1094 17.1354L33.581 17.2021L34.0326 17.4773C34.1737 17.5633 34.3805 17.6944 34.5405 17.8041C33.9779 17.8361 33.1036 17.9605 32.4846 18.3964L32.1644 18.6219L32.5448 18.7259C32.6489 18.7543 32.8274 18.823 32.9691 18.914C32.39 18.987 31.2874 19.1908 30.7474 19.7168L30.4981 19.9676L30.8546 20.0319C30.8618 20.0333 31.5737 20.185 31.5737 22.1801C31.5737 22.8471 31.7613 23.8066 32.0312 24.5556C31.9476 24.5446 31.8627 24.5386 31.773 24.538C31.3737 24.538 31.007 24.708 30.7663 25.0039C30.4899 25.3417 30.3608 25.801 30.3608 26.4493C30.3608 28.539 31.8292 29.2561 32.414 29.4559C33.4461 32.2239 35.479 33.9612 37.7376 33.9612C39.9939 33.9612 42.0272 32.2239 43.059 29.4559C43.6443 29.2561 45.1119 28.5421 45.1119 26.4523C45.1122 25.808 44.98 25.3317 44.7081 25.0042ZM35.2421 27.4431C34.5282 27.4431 33.9474 26.8772 33.9474 26.1815C33.9474 25.4844 34.5282 24.9172 35.2421 24.9172C35.9541 24.9172 36.5365 25.4848 36.5405 26.1805C36.5365 26.8765 35.9541 27.4431 35.2421 27.4431ZM40.2323 27.4431C39.5203 27.4431 38.9376 26.8768 38.9339 26.1828C38.9379 25.4851 39.5208 24.9175 40.2323 24.9175C40.9462 24.9175 41.527 25.4844 41.527 26.1818C41.5266 26.8768 40.9462 27.4431 40.2323 27.4431ZM42.1951 25.6179C41.9417 24.7547 41.1551 24.1531 40.2323 24.1531C39.3026 24.1531 38.5058 24.7714 38.2616 25.6519C38.0883 25.6032 37.9123 25.5778 37.736 25.5768C37.5613 25.5778 37.3861 25.6032 37.2128 25.6519C36.9689 24.7714 36.1725 24.1531 35.2421 24.1531C34.3196 24.1531 33.5324 24.7551 33.279 25.6182C33.2102 25.5622 33.1493 25.4951 33.0957 25.4158L33.1005 25.2797C33.1215 24.719 33.1855 24.1397 33.2828 23.5881C33.9008 21.8989 34.6357 21.8135 34.7768 21.8135C34.8891 21.8135 35.1318 21.8419 35.4133 21.8746C35.8797 21.9289 36.4601 21.997 36.9312 21.997C37.9922 21.997 38.614 21.8495 39.163 21.7191C39.5893 21.6178 39.9573 21.5307 40.4597 21.5307C41.2603 21.5307 41.9944 23.1999 42.2642 24.0534C42.3251 24.4923 42.3618 24.8935 42.3766 25.2783L42.381 25.4124C42.3269 25.4921 42.2646 25.5608 42.1951 25.6179ZM37.724 32.9607C35.8841 32.9607 34.1484 31.3592 33.2998 28.8872L33.1974 28.6024L32.9091 28.5537C32.8989 28.5501 32.8873 28.5461 32.8757 28.5431C32.3202 28.4036 31.3888 27.9461 31.3885 26.458C31.4282 25.5848 31.5874 25.5655 31.8155 25.5385C31.8976 25.5385 32.0055 25.5628 32.1421 25.6122C32.2079 25.6375 32.2616 25.6642 32.2949 25.6809C32.3099 25.6886 32.324 25.6952 32.338 25.7012L32.3698 25.7199C32.6243 26.1565 32.9688 26.3676 33.2077 26.4673C33.3544 27.4675 34.2091 28.2079 35.2418 28.2079C36.292 28.2079 37.1501 27.4542 37.2822 26.437C37.2953 26.432 37.3087 26.4009 37.3234 26.3953C37.3952 26.3656 37.5411 26.2905 37.709 26.2905H37.7644C37.9244 26.2905 38.0633 26.3592 38.1533 26.3959C38.1667 26.4013 38.1798 26.4193 38.192 26.4243C38.324 27.4411 39.182 28.2015 40.2319 28.2015C41.2648 28.2015 42.1195 27.4645 42.2667 26.4643C42.5059 26.3646 42.8505 26.1548 43.1052 25.7172L43.1522 25.6906C43.2079 25.6582 43.4514 25.5371 43.688 25.5405C43.8877 25.5642 44.0456 25.5828 44.0848 26.4486C44.0848 27.9484 43.1532 28.404 42.5981 28.5421C42.5865 28.5451 42.5755 28.5481 42.5648 28.5517L42.2728 28.5994L42.1772 28.8832C41.325 31.3523 39.5885 32.9474 37.7528 32.9474L37.7384 33.1398L37.7394 32.9607H37.724Z" fill="white"/>
<path fill-rule="evenodd" clip-rule="evenodd" d="M42.9686 25.921C42.9904 25.8927 43.0118 25.8631 43.0329 25.8322C43.0576 25.7957 43.0818 25.7574 43.1052 25.7172L43.1522 25.6906C43.2037 25.6607 43.4147 25.5554 43.6329 25.5418C43.6478 25.5409 43.6626 25.5404 43.6774 25.5404C43.6809 25.5404 43.6845 25.5404 43.688 25.5405C43.743 25.547 43.7948 25.5531 43.8418 25.5767C43.8495 25.5805 43.8571 25.5848 43.8645 25.5897C43.879 25.5992 43.893 25.6108 43.9065 25.625C43.9083 25.627 43.9102 25.629 43.912 25.6311C43.9871 25.7157 44.0438 25.8877 44.0728 26.2517C44.0776 26.3119 44.0816 26.3774 44.0848 26.4486C44.0848 26.4497 44.0848 26.4507 44.0848 26.4518C44.0848 26.4519 44.0848 26.4516 44.0848 26.4518C44.0847 26.5985 44.0757 26.7357 44.059 26.8631C43.9296 27.8443 43.3438 28.272 42.8629 28.4584C42.8133 28.4776 42.7648 28.4942 42.7181 28.5086C42.6765 28.5215 42.6364 28.5325 42.5981 28.5421C42.5865 28.5451 42.5755 28.5481 42.5648 28.5517L42.2728 28.5994L42.1772 28.8832C42.1529 28.9539 42.1277 29.0239 42.1019 29.0931C42.0992 29.1003 42.0965 29.1075 42.0939 29.1146C41.459 30.803 40.4034 32.0524 39.196 32.6158C38.7323 32.8321 38.2461 32.9474 37.7528 32.9474L37.7384 33.1398L37.7394 32.9607H37.7376H37.724C37.7085 32.9607 37.6933 32.9606 37.6779 32.9603C37.4885 32.9576 37.3003 32.9379 37.1141 32.9021C36.8431 32.85 36.5766 32.7637 36.317 32.6457C35.0911 32.0886 34.0198 30.8249 33.381 29.1138C33.3795 29.1096 33.3779 29.1054 33.3763 29.1011C33.3501 29.0306 33.3246 28.9593 33.2998 28.8872L33.1974 28.6024L32.9091 28.5537C32.8989 28.5501 32.8873 28.5461 32.8757 28.5431C32.837 28.5334 32.7967 28.5222 32.7549 28.5092C32.7068 28.4942 32.6569 28.4769 32.606 28.4569C32.1247 28.2683 31.5408 27.8385 31.4137 26.8626C31.3973 26.737 31.3885 26.6023 31.3885 26.458C31.3886 26.4551 31.3887 26.4522 31.3889 26.4493C31.3921 26.3793 31.3962 26.3149 31.401 26.2555C31.4308 25.8855 31.4899 25.7131 31.5716 25.6288C31.5722 25.6281 31.5728 25.6275 31.5734 25.6269C31.5926 25.6075 31.613 25.5929 31.6345 25.5816C31.6743 25.5608 31.718 25.5515 31.7651 25.5448C31.7677 25.5445 31.7704 25.5441 31.773 25.5437C31.7869 25.5419 31.801 25.5402 31.8155 25.5385C31.8394 25.5385 31.8655 25.5405 31.8938 25.5447C31.9629 25.5548 32.0453 25.5772 32.1421 25.6122C32.2079 25.6375 32.2616 25.6642 32.2949 25.6809C32.3099 25.6886 32.324 25.6952 32.338 25.7012L32.3698 25.7199C32.393 25.7596 32.4169 25.7975 32.4414 25.8335C32.4624 25.8645 32.4838 25.8941 32.5056 25.9224C32.5447 25.9734 32.5851 26.0203 32.6258 26.0635C32.6665 26.1064 32.7075 26.1456 32.7488 26.1815C32.7579 26.1893 32.7669 26.197 32.7759 26.2045C32.8011 26.2256 32.8264 26.2454 32.8515 26.2641C32.8544 26.2663 32.8575 26.2686 32.8606 26.2708C32.9854 26.3623 33.1061 26.4249 33.2077 26.4673C33.2473 26.7372 33.3384 26.9881 33.4706 27.2107C33.6333 27.4846 33.8582 27.7155 34.126 27.8859C34.2594 27.9708 34.4034 28.0407 34.5557 28.0934C34.7702 28.1677 35.0012 28.2079 35.2418 28.2079C35.2419 28.2079 35.2416 28.2079 35.2418 28.2079C35.9436 28.2078 36.56 27.871 36.9308 27.344C36.9689 27.2899 37.0044 27.2337 37.0373 27.1757C37.1467 26.9818 37.2253 26.7673 37.2667 26.5381C37.2726 26.5047 37.2779 26.471 37.2822 26.437C37.2886 26.4345 37.295 26.426 37.3016 26.4172C37.3085 26.4078 37.3158 26.3982 37.3234 26.3953C37.333 26.3913 37.3439 26.3865 37.356 26.3812C37.3749 26.373 37.3965 26.3635 37.4207 26.3538C37.4402 26.346 37.4613 26.3381 37.4838 26.3306C37.5494 26.3086 37.6265 26.2905 37.709 26.2905H37.7644C37.8466 26.2905 37.9231 26.3086 37.9904 26.3312C38.0125 26.3387 38.0335 26.3465 38.0534 26.3544C38.0761 26.3634 38.0972 26.3723 38.1167 26.3806C38.1298 26.3861 38.142 26.3913 38.1533 26.3959C38.1602 26.3987 38.167 26.4047 38.1736 26.4106C38.18 26.4163 38.1861 26.4218 38.192 26.4243C38.1977 26.4672 38.2045 26.5097 38.2127 26.5516C38.256 26.7765 38.3356 26.9872 38.4448 27.1778C38.4771 27.234 38.5119 27.2885 38.5491 27.3411C38.9205 27.8654 39.5339 28.2015 40.2319 28.2015C40.4709 28.2015 40.7005 28.162 40.9139 28.0889C41.0674 28.0364 41.2124 27.9665 41.3468 27.8814C41.615 27.7114 41.8405 27.4808 42.0034 27.207C42.1358 26.9848 42.2269 26.7341 42.2667 26.4643C42.3683 26.4219 42.4889 26.3597 42.6137 26.2686C42.6172 26.266 42.6208 26.2633 42.6245 26.2607C42.6495 26.2421 42.6745 26.2224 42.6997 26.2014C42.7072 26.1951 42.7147 26.1888 42.7222 26.1824C42.7224 26.1822 42.7219 26.1826 42.7222 26.1824C42.7727 26.1387 42.8238 26.0894 42.8734 26.035C42.9056 25.9995 42.9375 25.9616 42.9686 25.921ZM41.1177 27.101C41.3275 26.909 41.4719 26.6498 41.5141 26.3592C41.5225 26.3012 41.527 26.242 41.527 26.1818C41.527 26.0558 41.508 25.934 41.4728 25.819C41.4313 25.6842 41.3675 25.5588 41.2853 25.4469C41.2636 25.4173 41.2406 25.3887 41.2163 25.361C41.2047 25.3477 41.1928 25.3346 41.1805 25.3217C41.1788 25.3199 41.1771 25.318 41.1752 25.3162C41.0974 25.2354 41.0088 25.1645 40.9116 25.1058C40.7141 24.9864 40.4812 24.9175 40.2323 24.9175C39.8556 24.9175 39.5149 25.0766 39.2771 25.3299C39.1419 25.474 39.0399 25.6486 38.9835 25.8417C38.9517 25.9503 38.9344 26.0647 38.9339 26.1828C38.9341 26.2332 38.9373 26.283 38.9436 26.3319C38.9829 26.6406 39.1369 26.9157 39.3625 27.115C39.5931 27.3186 39.8984 27.4431 40.2319 27.4431C40.5741 27.4431 40.886 27.3131 41.1177 27.101ZM41.175 24.3801C41.448 24.5208 41.6856 24.7216 41.8697 24.9673C41.8965 25.0031 41.9221 25.0397 41.9465 25.0773C41.9661 25.1073 41.9849 25.1378 42.0028 25.1689C42.0188 25.1965 42.0342 25.2246 42.0489 25.2531C42.0549 25.2647 42.0608 25.2764 42.0665 25.2881C42.0668 25.2886 42.0671 25.2891 42.0672 25.2896C42.0883 25.3323 42.108 25.376 42.126 25.4204C42.1522 25.4845 42.1753 25.5504 42.1951 25.6179C42.2646 25.5608 42.3269 25.4921 42.381 25.4124L42.3766 25.2783C42.3672 25.0347 42.3491 24.7845 42.3216 24.5224C42.3211 24.5169 42.3205 24.5114 42.3199 24.5059C42.3171 24.4802 42.3144 24.4544 42.3115 24.4285C42.2978 24.3063 42.2821 24.1815 42.2642 24.0534C42.2296 23.9438 42.1872 23.8207 42.1382 23.6895C42.076 23.5232 42.0027 23.3437 41.9203 23.1618C41.5612 22.3694 41.0271 21.5307 40.4597 21.5307C39.9573 21.5307 39.5893 21.6178 39.163 21.7191C38.614 21.8495 37.9922 21.997 36.9312 21.997C36.4633 21.997 35.8876 21.9298 35.423 21.8757L35.4034 21.8734C35.1261 21.8412 34.8878 21.8135 34.7768 21.8135C34.6462 21.8135 34.0069 21.8867 33.4223 23.2373C33.3753 23.3458 33.3288 23.4625 33.2828 23.5881C33.2783 23.6134 33.2739 23.6387 33.2696 23.6641C33.2419 23.8269 33.2172 23.9918 33.1955 24.1578C33.1839 24.2476 33.1731 24.3377 33.1634 24.4279C33.1597 24.4605 33.1564 24.493 33.1531 24.5256C33.1276 24.7779 33.1099 25.0306 33.1005 25.2797L33.0957 25.4158C33.1493 25.4951 33.2102 25.5622 33.279 25.6182C33.2985 25.5519 33.3211 25.4872 33.3467 25.4241C33.365 25.3787 33.3851 25.3341 33.4064 25.2905C33.4066 25.2903 33.4064 25.2907 33.4064 25.2905C33.4249 25.2531 33.4445 25.2159 33.4651 25.18C33.4843 25.1464 33.5043 25.1135 33.5253 25.0812C33.5503 25.0425 33.5766 25.0047 33.6041 24.968C33.63 24.9335 33.6569 24.8999 33.6848 24.8672C33.9374 24.5715 34.2717 24.3515 34.6517 24.2385C34.8389 24.1828 35.0371 24.1531 35.2421 24.1531C35.9305 24.1531 36.5456 24.4916 36.9179 25.0245C36.9227 25.0315 36.9276 25.0385 36.9324 25.0456C36.9968 25.1403 37.0536 25.241 37.1019 25.3468C37.1362 25.4223 37.1663 25.5004 37.1917 25.5808C37.1992 25.6043 37.2061 25.628 37.2128 25.6519C37.2358 25.6454 37.2589 25.6393 37.2821 25.6337C37.3708 25.612 37.46 25.5964 37.5491 25.5871C37.6025 25.5816 37.6557 25.5783 37.709 25.5772C37.718 25.577 37.727 25.5769 37.736 25.5768C37.7455 25.5769 37.7549 25.577 37.7644 25.5772C37.8182 25.5783 37.872 25.5817 37.9257 25.5873C38.0156 25.5967 38.1052 25.6123 38.1942 25.6341C38.2168 25.6397 38.2392 25.6456 38.2616 25.6519C38.2681 25.6284 38.2749 25.6052 38.2822 25.5822C38.3077 25.5014 38.3379 25.423 38.3725 25.3472C38.4208 25.2413 38.4777 25.1405 38.5421 25.0458C38.5468 25.0388 38.5516 25.0319 38.5564 25.025C38.9288 24.4919 39.544 24.1531 40.2323 24.1531C40.4261 24.1531 40.6139 24.1796 40.7919 24.2295C40.806 24.2335 40.82 24.2376 40.8339 24.2418C40.9525 24.2778 41.0665 24.3242 41.175 24.3801ZM34.2958 25.3196C34.375 25.2366 34.4656 25.1639 34.5653 25.1041C34.7622 24.9856 34.9942 24.9172 35.2421 24.9172C35.6197 24.9172 35.9608 25.0768 36.1986 25.3305C36.2239 25.3575 36.248 25.3856 36.2709 25.4147C36.2717 25.4158 36.2726 25.4169 36.2735 25.418C36.3714 25.5431 36.4461 25.6863 36.4912 25.8414C36.5228 25.9494 36.54 26.0631 36.5405 26.1805C36.5403 26.2359 36.5363 26.2905 36.5288 26.3441C36.4866 26.648 36.3337 26.9184 36.1113 27.1149C35.8808 27.3187 35.5757 27.4431 35.2421 27.4431C35.2422 27.4431 35.2419 27.4431 35.2421 27.4431C34.9 27.4431 34.5881 27.313 34.3565 27.101C34.1475 26.9098 34.0035 26.6519 33.9608 26.3626C33.9547 26.3216 33.9506 26.28 33.9487 26.2378C33.9478 26.2191 33.9474 26.2003 33.9474 26.1815C33.9474 26.0557 33.9663 25.9342 34.0015 25.8194C34.0054 25.8065 34.0096 25.7936 34.014 25.7809C34.0546 25.6626 34.1126 25.552 34.1851 25.4522C34.2073 25.4215 34.2309 25.3919 34.2557 25.3634C34.2681 25.3493 34.2806 25.3354 34.2936 25.3218C34.2943 25.3211 34.295 25.3204 34.2958 25.3196ZM32.9779 21.2601C32.9392 20.9324 32.8783 20.6382 32.7965 20.3745C32.9264 20.3506 33.0493 20.3324 33.156 20.3189L37.0367 19.8294L35.9663 19.142L38.7824 18.9818L38.328 18.67C38.8557 18.8116 39.2361 18.9928 39.5056 19.1608C40.0594 19.5061 40.2409 19.8556 40.2635 19.9016L40.3676 20.1148C39.733 20.1251 39.2483 20.2405 38.8441 20.3366C38.8355 20.3387 38.8268 20.3408 38.8182 20.3428C38.8184 20.3428 38.8181 20.3429 38.8182 20.3428L38.8133 20.344C38.3097 20.4636 37.8187 20.5803 36.9312 20.5803C36.5645 20.5803 36.0776 20.5252 35.5862 20.4679C35.566 20.4656 35.544 20.463 35.5216 20.4604C35.2998 20.4344 34.9803 20.3969 34.7768 20.3969C34.3791 20.3969 33.8192 20.5267 33.2623 20.9916C33.165 21.0728 33.0701 21.1622 32.9779 21.2601ZM43.5555 24.1272C43.5608 24.0677 43.5664 24.0084 43.5726 23.9493C43.575 23.9262 43.5775 23.9031 43.58 23.88C43.5884 23.8032 43.5976 23.7267 43.607 23.6507C43.6118 23.6121 43.6166 23.5736 43.6216 23.5353C43.6329 23.4472 43.6447 23.3597 43.6563 23.2727L43.6565 23.271C43.6633 23.2209 43.67 23.1711 43.6765 23.1216C43.7301 22.7199 43.7758 22.3366 43.7758 21.9583C43.7758 20.9934 43.1874 19.5117 41.5766 19.2925C41.3438 18.8163 40.1901 17 36.14 17C36.0598 17 35.979 17.0007 35.8974 17.0022C35.6371 17.0068 35.3691 17.0189 35.0944 17.0382C34.8987 17.052 34.6997 17.0695 34.4976 17.0907C34.4204 17.0988 34.3427 17.1074 34.2646 17.1166C34.2646 17.1165 34.2645 17.1166 34.2646 17.1166C34.2131 17.1226 34.1612 17.1289 34.1094 17.1354L33.581 17.2021L34.0326 17.4773C34.0725 17.5016 34.1177 17.5295 34.1654 17.5595C34.1656 17.5596 34.1654 17.5594 34.1654 17.5595C34.2869 17.6356 34.4259 17.7254 34.5405 17.8041C34.437 17.81 34.3231 17.819 34.2021 17.8325C34.2024 17.8325 34.2019 17.8325 34.2021 17.8325C34.1286 17.8407 34.052 17.8506 33.974 17.8624C33.9045 17.873 33.8336 17.8851 33.7618 17.899C33.7619 17.8989 33.7618 17.899 33.7618 17.899C33.7334 17.9045 33.7046 17.9103 33.6761 17.9163C33.6637 17.9189 33.6515 17.9216 33.6392 17.9243C33.4224 17.972 33.2006 18.0366 32.989 18.124C32.9493 18.1404 32.9099 18.1576 32.8709 18.1756C32.804 18.2067 32.7382 18.2402 32.6744 18.2764C32.6747 18.2763 32.6742 18.2766 32.6744 18.2764C32.6621 18.2834 32.6492 18.2909 32.6371 18.298C32.5848 18.3289 32.5339 18.3617 32.4846 18.3964L32.1644 18.6219L32.5448 18.7259C32.6101 18.7437 32.7043 18.7773 32.8006 18.8222C32.8581 18.8491 32.9161 18.88 32.9691 18.914C32.94 18.9177 32.9094 18.9217 32.8777 18.9261C32.7561 18.9428 32.6169 18.9648 32.468 18.9935C32.4681 18.9935 32.4679 18.9935 32.468 18.9935C32.4601 18.995 32.4517 18.9967 32.4438 18.9982C32.3108 19.0243 32.1705 19.0556 32.0285 19.0932C32.0257 19.0939 32.0229 19.0947 32.0201 19.0954C31.64 19.1966 31.2478 19.3426 30.9485 19.5519C30.9475 19.5526 30.9466 19.5533 30.9456 19.5539C30.8772 19.602 30.8137 19.6533 30.7563 19.7082C30.7533 19.711 30.7504 19.7139 30.7474 19.7168L30.4981 19.9676L30.8546 20.0319C30.8596 20.0329 31.21 20.1075 31.4197 20.8365C31.5096 21.1489 31.5737 21.5815 31.5737 22.1801C31.5737 22.4562 31.6059 22.7826 31.6627 23.1234C31.6929 23.3042 31.73 23.4891 31.773 23.6728C31.7752 23.6821 31.7774 23.6913 31.7796 23.7006C31.782 23.711 31.7845 23.7214 31.787 23.7319C31.8189 23.864 31.8537 23.9951 31.8911 24.1233C31.9345 24.2725 31.9815 24.4176 32.0312 24.5556C31.9609 24.5464 31.8897 24.5407 31.8155 24.5387C31.8014 24.5383 31.7873 24.5381 31.773 24.538C31.7455 24.538 31.7181 24.5388 31.6909 24.5404C31.6909 24.5404 31.6909 24.5404 31.6909 24.5404C31.3338 24.5614 31.0087 24.7195 30.7849 24.9815C30.7786 24.9889 30.7724 24.9963 30.7663 25.0039C30.495 25.3355 30.3656 25.7841 30.361 26.4136C30.3609 26.4255 30.3608 26.4373 30.3608 26.4493C30.3608 26.4523 30.3608 26.4552 30.3608 26.4582C30.364 28.0428 31.2127 28.8359 31.8757 29.2125C31.9311 29.2439 31.9851 29.2725 32.0373 29.2983C32.0451 29.3022 32.0529 29.306 32.0607 29.3098C32.1956 29.3753 32.317 29.4227 32.414 29.4559C32.4396 29.5246 32.4659 29.5926 32.4927 29.66C32.5083 29.6993 32.5242 29.7383 32.5402 29.7772C32.542 29.7815 32.5438 29.7859 32.5456 29.7902C32.5666 29.8409 32.588 29.8911 32.6096 29.9409C33.6876 32.4201 35.6057 33.9547 37.724 33.9612C37.7286 33.9612 37.7331 33.9612 37.7376 33.9612C37.7378 33.9612 37.7392 33.9612 37.7394 33.9612C37.7439 33.9612 37.7483 33.9612 37.7528 33.9612C39.8693 33.9547 41.7868 32.4194 42.8642 29.9393C42.8851 29.891 42.9059 29.8423 42.9261 29.7933C42.9286 29.7875 42.9311 29.7817 42.9334 29.7758C42.9472 29.7425 42.9608 29.709 42.9743 29.6753C43.0032 29.6029 43.0315 29.5298 43.059 29.4559C43.1627 29.4205 43.2939 29.369 43.4397 29.2966C43.444 29.2946 43.448 29.2925 43.4523 29.2904C43.4992 29.2668 43.5475 29.2412 43.5968 29.2132C44.2613 28.8369 45.1119 28.0433 45.1119 26.4523C45.1119 26.4511 45.1119 26.4498 45.1119 26.4486C45.1119 26.4338 45.1118 26.419 45.1116 26.4043C45.1055 25.7843 44.9733 25.3235 44.7081 25.0042C44.5164 24.7694 44.2459 24.614 43.9318 24.5597C43.8927 24.553 43.853 24.5478 43.8125 24.5442C43.8034 24.5434 43.7941 24.5427 43.7848 24.542C43.7579 24.5401 43.7305 24.5389 43.7029 24.5385C43.6944 24.5384 43.686 24.5383 43.6774 24.5383C43.6475 24.5433 43.6182 24.5436 43.5896 24.5439C43.5691 24.5441 43.5488 24.5443 43.5292 24.5463C43.5341 24.4052 43.5433 24.2655 43.5555 24.1272Z" fill="white"/>
<path d="M48.5399 43.2571C48.5306 43.2151 48.3066 42.2216 48.0818 41.7029C47.5002 40.3649 46.7367 39.2463 45.7481 38.2835C44.728 37.29 43.5479 36.5135 42.241 35.9749C40.8784 35.414 39.4272 35.1292 37.9287 35.1292C36.4378 35.1292 34.985 35.4163 33.6108 35.982C32.601 36.3982 31.6603 36.9595 30.8142 37.6501L30.5824 37.8392L31.7391 38.3529L31.8305 38.2838C33.5471 36.9839 35.6599 36.2987 37.9398 36.2987C42.2383 36.2987 46.2172 39.2987 47.4964 43.3008H36.5615V43.6684V44.3014H48.1604H48.5463V43.2965L48.5399 43.2571Z" fill="white"/>
<path fill-rule="evenodd" clip-rule="evenodd" d="M49.2541 43.1266L49.2727 43.2399V45.0098H35.8333V42.5925H46.4486C44.985 39.3404 41.568 37.0072 37.9389 37.0072C35.8118 37.0072 33.8582 37.6449 32.2761 38.843L31.8365 39.1751L29.2301 38.0178L30.3462 37.1073C30.3462 37.1073 30.3461 37.1075 30.3462 37.1073C31.2471 36.3719 32.2497 35.7735 33.3265 35.3297C34.7901 34.7273 36.3396 34.4209 37.9278 34.4209C39.5225 34.4209 41.0701 34.7243 42.5232 35.3226C43.9178 35.8973 45.1761 36.7257 46.2615 37.7826C47.3206 38.8143 48.1351 40.0105 48.7505 41.427C49.0074 42.0189 49.2444 43.0823 49.2502 43.1087L49.2541 43.1266ZM30.5815 37.8393L30.8133 37.6502C30.9437 37.5438 31.0762 37.4405 31.211 37.3404C31.9509 36.7901 32.7556 36.3341 33.6099 35.9821C34.9841 35.4164 36.4369 35.1292 37.9278 35.1292C39.4263 35.1292 40.8775 35.4141 42.2401 35.975C43.5472 36.5136 44.7271 37.2901 45.7472 38.2836C46.7359 39.2463 47.4993 40.3649 48.0809 41.703C48.3057 42.2216 48.5297 43.2151 48.539 43.2572L48.5454 43.2966V44.3014H36.5606V43.3008H47.4956C47.4189 43.061 47.3326 42.8247 47.2371 42.5925C45.7382 38.95 41.9798 36.2988 37.9389 36.2988C35.659 36.2988 33.5462 36.9839 31.8297 38.2839L31.7382 38.353L30.5815 37.8393Z" fill="white"/>
</g>
<defs>
<filter id="filter0_i_1874_10403" x="0" y="-9" width="68" height="77" filterUnits="userSpaceOnUse" color-interpolation-filters="sRGB">
<feFlood flood-opacity="0" result="BackgroundImageFix"/>
<feBlend mode="normal" in="SourceGraphic" in2="BackgroundImageFix" result="shape"/>
<feColorMatrix in="SourceAlpha" type="matrix" values="0 0 0 0 0 0 0 0 0 0 0 0 0 0 0 0 0 0 127 0" result="hardAlpha"/>
<feOffset dy="-9"/>
<feGaussianBlur stdDeviation="10"/>
<feComposite in2="hardAlpha" operator="arithmetic" k2="-1" k3="1"/>
<feColorMatrix type="matrix" values="0 0 0 0 0 0 0 0 0 0 0 0 0 0 0 0 0 0 0.25 0"/>
<feBlend mode="normal" in2="shape" result="effect1_innerShadow_1874_10403"/>
</filter>
<linearGradient id="paint0_linear_1874_10403" x1="34" y1="0" x2="34" y2="93.5" gradientUnits="userSpaceOnUse">
<stop stop-color="#010AA5"/>
<stop offset="1" stop-color="#0FAAAF"/>
</linearGradient>
<clipPath id="clip0_1874_10403">
<rect width="32" height="34" fill="white" transform="translate(18 17)"/>
</clipPath>
</defs>
</svg>
