<svg width="468" height="468" viewBox="0 0 468 468" fill="none" xmlns="http://www.w3.org/2000/svg">
<rect width="468" height="468" fill="#F1F0FA"/>
<g clip-path="url(#clip0_2382_1650)">
<path d="M231.904 374.339C230.209 373.924 228.575 373.29 227.043 372.453C222.607 369.792 218.18 367.176 218.18 359.791C218.18 335.956 218.49 315.263 218.49 290.754C218.362 287.397 218.909 284.048 220.1 280.907C221.928 276.613 227.085 273.87 229.928 270.173C232.771 266.476 232.812 264.475 232.812 259.691L232.784 258.164C242.278 260.925 250.037 261.459 259.589 261.459C265.069 261.568 270.55 261.371 276.008 260.869C280.017 260.385 284.793 259.897 288.855 258.342C288.855 258.737 288.863 258.988 288.863 258.988C288.863 263.771 288.904 266.474 291.746 270.169C294.589 273.864 299.747 276.61 301.574 280.903C302.765 284.045 303.313 287.394 303.185 290.751C303.185 315.26 303.495 335.953 303.495 359.787C303.495 367.174 299.067 369.788 294.631 372.45C288.575 376.083 270.935 377.4 261.286 377.507C253.49 377.423 240.037 376.558 231.904 374.339Z" fill="white"/>
<path d="M339.944 227.667C340.775 228.705 341.186 230.018 341.096 231.345C341.079 232.275 340.73 233.168 340.112 233.863C339.097 234.716 337.727 234.523 336.524 234.282C334.845 233.947 333.078 233.504 331.374 233.948C327.701 234.903 326.991 238.623 327.486 241.886C327.709 243.364 327.754 244.606 326.746 245.844C325.776 247.031 324.521 246.985 323.124 246.781C322.127 246.56 321.092 246.572 320.101 246.818C319.109 247.064 318.188 247.537 317.41 248.199C316.649 248.877 316.132 249.788 315.941 250.789C315.75 251.791 315.895 252.827 316.354 253.738C316.645 254.225 317.116 254.579 317.665 254.723C318.214 254.867 318.798 254.79 319.29 254.508C319.774 254.213 320.124 253.743 320.267 253.195C320.411 252.647 320.337 252.065 320.061 251.571C320.127 251.706 320.449 251.201 320.556 251.134C321.03 250.91 321.562 250.841 322.077 250.937C323.955 251.116 325.565 251.395 327.371 250.621C329.03 249.865 330.363 248.538 331.127 246.882C331.92 245.147 332.13 243.201 331.724 241.336C331.588 240.531 331.31 239.095 331.903 238.412C332.619 237.597 334.333 238.21 335.208 238.387C338.623 239.078 342.32 238.763 344.28 235.46C345.112 233.905 345.493 232.149 345.381 230.389C345.268 228.629 344.668 226.935 343.646 225.497C343.349 225.017 342.878 224.669 342.332 224.525C341.785 224.382 341.204 224.454 340.709 224.727C340.222 225.018 339.868 225.489 339.723 226.039C339.579 226.588 339.657 227.172 339.939 227.665L339.944 227.667Z" fill="#211715"/>
<path d="M389.399 185.829C388.712 185.062 386.766 183.847 386.746 182.681C386.87 182.105 387.081 181.552 387.372 181.041C387.672 180.135 387.855 179.195 387.917 178.243C388.275 174.934 386.754 171.331 383.543 170.033C382.08 169.441 380.132 169.72 378.812 168.87C378.031 168.178 377.408 167.325 376.987 166.37C375.433 163.632 373.426 161.023 369.929 161.145C368.096 161.267 366.327 161.865 364.795 162.878C364.102 163.312 363.453 163.818 362.763 164.252C362.357 164.592 361.858 164.802 361.332 164.854C360.67 164.784 359.983 164.03 359.393 163.722C358.619 163.32 357.785 163.046 356.923 162.911C355.334 162.598 353.693 162.664 352.133 163.103C350.593 163.64 349.266 164.658 348.349 166.006C347.903 166.656 347.548 167.363 347.291 168.108C347.019 168.861 347.007 169.697 346.721 170.434C346.316 171.475 344.705 171.501 343.733 171.686C342.342 171.883 340.996 172.318 339.753 172.972C336.739 174.739 335.788 178.077 336.371 181.343C336.727 182.661 336.996 184.001 337.176 185.354C337.239 186.737 336.192 187.707 335.44 188.792C333.309 191.881 334.032 195.786 336.586 198.398C337.839 199.599 339.312 200.547 340.923 201.191C342.03 201.773 341.771 203.159 341.758 204.265C341.693 205.91 341.967 207.551 342.563 209.085C343.974 212.46 347.023 213.791 350.541 213.626C351.853 213.565 353.583 213.174 354.791 213.839C356.038 214.525 356.828 216.004 357.978 216.857C360.894 219.019 365.109 218.222 367.643 215.829C368.637 214.744 369.504 213.548 370.227 212.266C370.492 211.826 370.824 211.43 371.211 211.091C371.438 210.939 371.693 210.835 371.961 210.784C372.23 210.734 372.506 210.738 372.772 210.796C374.443 210.891 376.062 211.427 377.742 211.496C379.515 211.576 381.271 211.118 382.778 210.181C384.217 209.297 385.305 207.942 385.857 206.346C386.104 205.504 386.211 204.628 386.172 203.752C386.042 202.832 386.037 201.9 386.156 200.979C386.424 199.959 387.423 199.182 388.198 198.487C389.327 197.579 390.306 196.5 391.1 195.288C392.96 192.087 391.71 188.413 389.399 185.829Z" fill="#211715"/>
<path d="M375.888 188.162L378.423 185.726C378.82 185.293 379.034 184.724 379.021 184.137C379.008 183.549 378.769 182.99 378.354 182.575C377.939 182.159 377.379 181.92 376.792 181.908C376.205 181.895 375.636 182.109 375.203 182.506L372.939 184.68C372.263 183.887 371.588 183.092 370.914 182.295C370.486 181.871 369.907 181.633 369.304 181.633C368.701 181.633 368.123 181.871 367.694 182.295C367.282 182.73 367.052 183.306 367.052 183.905C367.052 184.504 367.282 185.08 367.694 185.515C368.347 186.29 369.002 187.062 369.662 187.83L366.989 190.398C366.762 190.606 366.58 190.858 366.453 191.138C366.326 191.418 366.257 191.721 366.251 192.029C366.244 192.336 366.299 192.642 366.414 192.928C366.529 193.213 366.7 193.472 366.918 193.69C367.135 193.908 367.394 194.079 367.68 194.193C367.965 194.308 368.271 194.364 368.579 194.357C368.886 194.35 369.189 194.281 369.47 194.155C369.75 194.028 370.002 193.845 370.209 193.618L372.61 191.312C373.378 192.231 374.139 193.154 374.882 194.093C375.094 194.305 375.345 194.473 375.621 194.588C375.897 194.702 376.193 194.761 376.492 194.762C377.096 194.757 377.673 194.517 378.103 194.093C378.528 193.665 378.768 193.087 378.77 192.483C378.735 191.887 378.5 191.319 378.103 190.873C377.377 189.958 376.636 189.057 375.888 188.162Z" fill="#D3D1D0"/>
<path d="M356.341 188.162L358.876 185.726C359.273 185.293 359.487 184.724 359.474 184.137C359.462 183.549 359.223 182.99 358.807 182.575C358.392 182.159 357.832 181.92 357.245 181.908C356.658 181.895 356.089 182.109 355.656 182.506L353.393 184.68C352.716 183.887 352.041 183.092 351.367 182.295C350.939 181.871 350.36 181.633 349.757 181.633C349.154 181.633 348.576 181.871 348.147 182.295C347.735 182.73 347.505 183.306 347.505 183.905C347.505 184.504 347.735 185.08 348.147 185.515C348.8 186.29 349.456 187.062 350.115 187.83L347.442 190.398C347.216 190.606 347.033 190.858 346.906 191.138C346.779 191.418 346.71 191.721 346.704 192.029C346.697 192.336 346.753 192.642 346.867 192.928C346.982 193.213 347.153 193.472 347.371 193.69C347.588 193.908 347.848 194.079 348.133 194.193C348.419 194.308 348.724 194.364 349.032 194.357C349.34 194.35 349.643 194.281 349.923 194.155C350.203 194.028 350.455 193.845 350.663 193.618L353.063 191.312C353.831 192.231 354.593 193.154 355.335 194.093C355.547 194.305 355.798 194.473 356.074 194.588C356.35 194.702 356.646 194.761 356.946 194.762C357.549 194.757 358.126 194.517 358.556 194.093C358.982 193.666 359.222 193.087 359.223 192.483C359.189 191.887 358.953 191.319 358.556 190.873C357.835 189.958 357.093 189.057 356.341 188.162Z" fill="#D3D1D0"/>
<path d="M227.117 354.976C226.323 352.683 225.798 350.305 225.555 347.891C227.28 348.588 229.046 349.177 230.845 349.655C237.375 351.413 251.129 352.772 260.849 352.801C270.557 352.772 284.222 351.554 290.835 349.655C292.603 349.158 294.344 348.569 296.052 347.892C295.804 354.366 293.162 360.734 289.059 363.052C283.976 365.925 270.335 367.233 261.492 367.233C252.65 367.233 238.139 366.148 233.186 363.052C229.691 360.869 228.338 358.431 227.117 354.976Z" fill="#87CCE3"/>
<path d="M230.36 286.396C230.831 284.515 231.752 282.776 233.043 281.329C234.033 280.303 235.228 279.498 236.55 278.964C237.871 278.43 239.29 278.179 240.715 278.229L282.323 277.961C285.573 277.961 287.157 279.129 289.435 281.958C291.534 284.565 292.381 291.745 294.02 294.114L294.109 294.437C293.61 294.556 293.109 294.66 292.607 294.752C288.854 295.44 275.112 296.371 261.925 296.371C248.313 296.371 233.779 295.243 231.972 295.056C230.583 294.912 229.138 294.738 227.703 294.47L227.793 294.112C228.791 291.59 229.648 289.014 230.36 286.396Z" fill="#87CCE3"/>
<path d="M260.74 231.431C255.175 231.431 248.89 231.176 243.339 231.628C238.688 232.008 230.483 232.496 227.463 236.767C226.483 238.152 226.479 239.963 226.479 241.66C226.479 245.134 225.808 252.908 227.298 254.63C228.636 256.034 230.237 257.158 232.011 257.94C241.86 260.892 249.778 261.457 259.587 261.457C265.067 261.567 270.548 261.37 276.006 260.868C281.483 260.207 288.391 259.538 292.954 256.151C293.642 255.685 294.206 255.058 294.596 254.324C295.639 252.138 295.604 239.984 294.397 237.427C292.16 232.695 283.015 232.378 278.602 231.982C272.666 231.446 266.697 231.431 260.74 231.431Z" fill="#D3D1D0"/>
<path d="M222.781 346.611C221.451 345.924 220.193 345.106 219.024 344.17L218.219 343.52C218.304 326.082 218.487 309.537 218.487 290.75C218.487 290.482 218.487 290.214 218.492 289.945C221.824 293.729 227.227 294.566 231.963 295.057C233.77 295.243 248.305 296.371 261.916 296.371C275.106 296.371 288.848 295.441 292.598 294.752C296.435 294.153 300.067 292.622 303.175 290.292C303.175 290.445 303.175 290.598 303.175 290.751C303.175 309.536 303.354 326.084 303.444 343.521L302.639 344.171C299.263 346.915 294.712 348.541 290.821 349.658C284.208 351.557 270.544 352.775 260.836 352.804C251.115 352.775 237.358 351.417 230.831 349.658C228.046 348.936 225.346 347.915 222.781 346.611Z" fill="white"/>
<path d="M234.488 245.43C237.449 246.717 240.765 247.077 243.942 247.466C247.764 247.935 251.61 248.221 255.455 248.399C261.819 248.695 268.195 248.533 274.536 247.917C278.816 247.497 283.213 246.947 287.183 245.201C287.672 244.911 288.027 244.44 288.171 243.89C288.315 243.34 288.237 242.756 287.953 242.263C287.656 241.782 287.185 241.434 286.639 241.291C286.092 241.147 285.511 241.22 285.016 241.493C285.344 241.349 284.914 241.536 284.837 241.566C284.658 241.633 284.486 241.699 284.308 241.762C283.972 241.88 283.632 241.987 283.289 242.089C282.415 242.347 281.527 242.558 280.633 242.741C278.918 243.093 277.183 243.342 275.445 243.53C271.778 243.926 268.082 244.11 264.391 244.19C258.281 244.314 252.169 244.055 246.092 243.414C244.145 243.212 242.374 242.995 240.457 242.649C239.657 242.505 238.859 242.344 238.072 242.141C237.77 242.063 237.47 241.98 237.177 241.886C237.023 241.838 236.062 241.461 236.662 241.722C236.166 241.453 235.587 241.383 235.041 241.526C234.496 241.669 234.025 242.015 233.725 242.492C233.442 242.985 233.364 243.569 233.508 244.119C233.652 244.669 234.007 245.14 234.496 245.43H234.488Z" fill="#211715"/>
<path d="M260.736 229.279C253.742 229.271 246.775 229.051 239.805 229.785C234.574 230.335 227.014 231.441 224.885 237.134C224.416 238.73 224.228 240.394 224.328 242.054C224.314 243.285 224.259 244.516 224.224 245.746C224.025 248.396 224.153 251.061 224.604 253.68C225.169 256.208 227.407 257.836 229.524 259.104C231.053 259.905 232.688 260.485 234.38 260.826C236.237 261.313 238.111 261.732 240.001 262.084C247.45 263.459 254.981 263.611 262.534 263.591C269.612 263.678 276.683 263.127 283.661 261.943C286.98 261.438 290.175 260.318 293.083 258.64C294.591 257.831 295.816 256.581 296.594 255.056C296.911 254.209 297.108 253.321 297.18 252.419C297.778 247.799 297.69 243.117 296.919 238.522C296.018 233.418 290.818 231.465 286.264 230.671C279.836 229.698 273.341 229.239 266.84 229.301C264.805 229.277 262.77 229.276 260.735 229.276C257.972 229.276 257.967 233.57 260.735 233.57C267.547 233.57 274.318 233.733 281.106 234.326C283.321 234.47 285.518 234.82 287.668 235.371C288.663 235.613 289.621 235.986 290.519 236.478C290.876 236.675 291.214 236.904 291.529 237.163C291.823 237.401 292.075 237.687 292.273 238.01C292.386 238.199 292.631 238.87 292.41 238.189C292.449 238.31 292.499 238.43 292.532 238.555C292.617 238.894 292.7 239.23 292.762 239.573C292.803 239.792 292.838 240.012 292.869 240.232C292.816 239.864 292.886 240.378 292.898 240.494C292.958 241.034 293.007 241.575 293.045 242.117C293.2 244.364 293.237 246.617 293.154 248.867C293.119 249.86 293.057 250.852 292.956 251.841C292.94 252.002 292.88 252.426 292.938 252.028C292.914 252.196 292.888 252.364 292.857 252.531C292.766 252.837 292.691 253.148 292.634 253.462C292.634 253.52 292.507 253.779 292.669 253.395C292.855 252.956 292.614 253.485 292.572 253.538C292.381 253.789 292.165 254.02 291.928 254.228C291.389 254.657 290.811 255.033 290.201 255.352C288.959 256.019 287.647 256.546 286.29 256.923C280.386 258.654 273.929 259.078 267.808 259.232C260.923 259.508 254.028 259.361 247.161 258.791C243.792 258.454 240.45 257.886 237.158 257.091C235.58 256.768 234.024 256.348 232.498 255.832C231.453 255.339 230.489 254.69 229.64 253.906C229.453 253.742 229.273 253.572 229.095 253.4C228.995 253.305 228.901 253.205 228.813 253.099C228.835 253.125 229.022 253.457 228.956 253.255C228.824 252.853 228.964 253.344 228.917 253.178C228.855 252.963 228.791 252.751 228.738 252.533C228.567 251.579 228.482 250.612 228.483 249.643C228.421 247.219 228.567 244.797 228.611 242.373C228.492 241.083 228.597 239.781 228.923 238.527C229.342 237.655 230.027 236.938 230.88 236.481C232.981 235.333 235.286 234.607 237.666 234.343C243.549 233.401 249.59 233.449 255.527 233.519C257.261 233.538 258.997 233.561 260.731 233.562C263.5 233.575 263.504 229.281 260.736 229.279Z" fill="#211715"/>
<path d="M230.662 259.683C230.662 261.882 230.784 263.977 229.994 265.974C229.085 267.917 227.781 269.649 226.165 271.06C224.387 272.735 222.436 274.237 220.798 276.057C218.976 278.076 217.703 280.53 217.101 283.182C216.486 286.256 216.23 289.391 216.339 292.523C216.339 295.85 216.332 299.176 216.318 302.503C216.295 308.745 216.26 314.987 216.214 321.23C216.13 333.649 216.035 346.067 216.03 358.487C215.9 361.141 216.351 363.792 217.353 366.254C218.271 368.188 219.63 369.88 221.321 371.194C224.195 373.554 227.519 375.303 231.091 376.337C235.392 377.447 239.776 378.207 244.2 378.608C248.71 379.107 253.245 379.413 257.781 379.57C266.674 379.839 275.573 379.218 284.343 377.717C288.075 377.091 292.05 376.327 295.4 374.478C298.928 372.531 302.597 370.038 304.314 366.254C305.506 363.625 305.638 360.901 305.636 358.057C305.636 354.876 305.629 351.695 305.615 348.515C305.593 342.275 305.558 336.037 305.511 329.799C305.422 317.226 305.333 304.654 305.327 292.081C305.327 286.208 304.827 280.318 300.653 275.823C297.595 272.529 293.002 270.009 291.586 265.49C291.064 263.362 290.868 261.167 291.005 258.98C291.005 256.217 286.712 256.213 286.712 258.98C286.604 261.367 286.799 263.757 287.292 266.094C287.964 268.437 289.168 270.593 290.808 272.395C293.754 275.794 298.406 278.145 299.932 282.593C300.774 285.378 301.147 288.284 301.036 291.192C301.04 294.392 301.045 297.592 301.053 300.792C301.072 306.922 301.104 313.052 301.148 319.181C301.229 331.281 301.327 343.382 301.343 355.483C301.343 358.141 301.632 360.946 300.806 363.514C300.212 365.218 299.14 366.715 297.718 367.826C296.321 368.947 294.821 369.933 293.238 370.77C291.895 371.468 290.469 371.996 288.995 372.34C280.718 374.595 271.839 375.1 263.299 375.319C259.333 375.42 255.357 375.217 251.402 374.948C246.939 374.68 242.493 374.185 238.081 373.465C236.113 373.143 234.163 372.719 232.239 372.195C230.856 371.866 229.524 371.354 228.275 370.674C225.139 368.9 221.846 366.855 220.782 363.224C220.017 360.613 220.33 357.741 220.335 355.054C220.34 351.969 220.35 348.885 220.363 345.801C220.39 339.786 220.426 333.772 220.471 327.757C220.556 315.42 220.592 303.082 220.642 290.744C220.544 287.849 220.963 284.96 221.879 282.212C222.764 280.241 224.105 278.508 225.791 277.156C229.19 274.039 233.037 271.023 234.379 266.387C234.884 264.189 235.079 261.93 234.959 259.678C234.959 256.915 230.666 256.91 230.666 259.678L230.662 259.683Z" fill="#211715"/>
<path d="M217.507 345.691C222.092 349.343 227.794 351.352 233.499 352.461C239.235 353.514 245.031 354.216 250.853 354.562C262.634 355.404 274.473 354.84 286.121 352.881C292.494 351.789 299.052 349.764 304.17 345.691C304.569 345.287 304.793 344.741 304.793 344.173C304.793 343.605 304.569 343.059 304.17 342.655C303.761 342.265 303.217 342.047 302.652 342.047C302.086 342.047 301.543 342.265 301.134 342.655C296.998 345.946 291.398 347.537 286.285 348.507C280.914 349.461 275.488 350.075 270.04 350.346C259.017 351.04 247.95 350.503 237.046 348.747C231.336 347.813 225.165 346.331 220.549 342.655C220.139 342.268 219.596 342.053 219.031 342.053C218.467 342.053 217.924 342.268 217.514 342.655C217.114 343.059 216.891 343.605 216.891 344.173C216.891 344.741 217.114 345.286 217.514 345.691H217.507Z" fill="#211715"/>
<path d="M217.225 291.729C221.199 295.817 227.059 296.764 232.49 297.247C237.014 297.651 241.555 297.896 246.087 298.108C259.744 298.808 273.432 298.614 287.064 297.527C293.105 297.017 299.184 296.025 304.142 292.236C304.62 291.936 304.965 291.465 305.108 290.919C305.251 290.374 305.181 289.794 304.912 289.298C304.622 288.809 304.151 288.454 303.602 288.31C303.052 288.166 302.468 288.244 301.975 288.528C299.467 290.398 296.585 291.708 293.526 292.367C292.923 292.507 292.316 292.635 291.705 292.734C291.556 292.758 291.408 292.779 291.257 292.802C290.761 292.88 291.457 292.781 291.053 292.83C290.127 292.942 289.198 293.041 288.268 293.126C282.328 293.676 276.357 293.943 270.395 294.102C258.246 294.393 246.091 294.051 233.978 293.076C229.242 292.708 223.747 292.287 220.254 288.693C218.325 286.708 215.291 289.746 217.218 291.729H217.225Z" fill="#211715"/>
<path d="M143.38 217.199C148.727 208.156 153.596 199.917 157.24 193.742C157.479 193.338 157.784 192.852 158.251 192.815C160.867 192.608 166.761 194.225 171.75 195.574C175.245 199.565 178.48 202.871 180.337 205.874C180.578 206.264 180.248 206.781 180.013 207.176C167.026 229.181 138.598 277.484 128.329 294.882C131.71 296.875 134.942 298.782 137.071 300.039C139.257 301.329 139.896 302.613 139.158 303.861L136.555 308.267C135.856 309.45 134.003 310.484 131.44 308.972L120.546 302.543L120.189 303.066C118.521 305.488 108.759 319.566 107.616 321.225L107.073 322.014L113.865 326.022C115.806 327.167 116.369 328.306 115.718 329.416L113.41 333.326C112.79 334.377 111.145 335.294 108.87 333.953L94.6738 325.575L94.4949 325.471L80.1274 316.991C77.8508 315.649 77.8598 313.764 78.4797 312.713L80.7884 308.802C81.4432 307.693 82.7143 307.639 84.6553 308.784L92.069 313.16L92.4876 312.322C93.3884 310.52 100.967 294.969 102.281 292.337C102.281 292.337 102.361 292.176 102.503 291.89L91.0716 285.144C88.508 283.634 88.5196 281.511 89.2164 280.324L91.8167 275.92C92.5538 274.667 93.9859 274.609 96.1721 275.899L105.489 281.399L105.937 280.531C112.645 269.161 126.165 246.309 138.451 225.53C140.125 222.706 141.775 219.917 143.38 217.199Z" fill="white"/>
<path d="M171.846 195.682L171.756 195.574C166.768 194.225 160.874 192.608 158.257 192.815C157.79 192.852 157.485 193.338 157.246 193.742C150.911 204.476 140.877 221.452 131.062 238.045C138.89 242.675 146.28 247.057 153.866 251.552C163.656 234.93 173.677 217.918 180.017 207.177C180.25 206.782 180.581 206.265 180.341 205.875C178.499 202.898 175.306 199.625 171.846 195.682Z" fill="#87CCE3"/>
<path d="M183.643 178.672C189.716 168.385 195.893 158.162 201.998 147.896C204.089 144.377 206.176 140.859 208.259 137.341C209.667 134.956 205.957 132.793 204.552 135.173C197.555 147.027 190.476 158.833 183.422 170.653C182.258 172.603 181.097 174.555 179.938 176.508C178.53 178.893 182.241 181.056 183.646 178.676L183.643 178.672Z" fill="#211715"/>
<path d="M107.793 281.614C114.757 269.814 121.729 258.018 128.709 246.227C136.911 232.357 145.11 218.486 153.308 204.615C155.097 201.59 156.883 198.564 158.667 195.539C158.739 195.419 158.81 195.298 158.88 195.181C159.103 194.807 159.581 194.494 158.845 194.763C157.95 195.091 159.245 194.953 159.594 194.98C160.627 195.085 161.653 195.255 162.664 195.489C165.527 196.094 168.352 196.879 171.176 197.643L170.229 197.091C172.018 199.127 173.862 201.117 175.621 203.174C176.247 203.908 176.873 204.648 177.44 205.427C177.635 205.696 178.019 206.549 178.32 206.705C177.62 206.347 178.703 205.394 178.102 206.18C177.986 206.353 177.88 206.532 177.784 206.717L173.096 214.665C169.297 221.109 165.499 227.555 161.703 234C153.538 247.859 145.374 261.718 137.211 275.577C133.798 281.37 130.383 287.163 126.966 292.955C125.559 295.339 129.269 297.502 130.674 295.122C137.851 282.96 145.021 270.795 152.182 258.626C160.43 244.622 168.681 230.618 176.933 216.616C178.543 213.889 180.151 211.163 181.756 208.438C182.443 207.271 182.857 206.075 182.185 204.79C181.611 203.818 180.953 202.898 180.217 202.042C178.576 199.941 176.761 197.982 174.985 195.997C174.001 194.897 173.248 193.761 171.765 193.356C170.447 192.998 169.13 192.64 167.808 192.304C165.56 191.688 163.278 191.201 160.974 190.847C160.076 190.689 159.162 190.629 158.251 190.668C156.738 190.793 155.904 191.79 155.176 193.014C154.424 194.279 153.68 195.549 152.932 196.816C144.887 210.439 136.836 224.059 128.78 237.675C121.178 250.532 113.577 263.389 105.978 276.247C105.348 277.315 104.718 278.383 104.087 279.45C102.68 281.836 106.389 283.998 107.794 281.618L107.793 281.614Z" fill="#211715"/>
<path d="M247.672 93.3957C246.273 91.9924 244.471 91.0609 242.517 90.731C239.078 90.0935 235.524 90.787 232.577 92.6711C229.506 94.5493 227.066 97.3019 225.57 100.576C223.473 105.026 222.919 108.636 222.633 114.046C222.63 114.119 222.647 114.191 222.683 114.254C222.719 114.317 222.773 114.369 222.837 114.403C222.901 114.436 222.974 114.451 223.047 114.445C223.119 114.439 223.188 114.412 223.246 114.367C224.871 113.221 226.641 112.296 228.51 111.617C230.797 110.751 233.221 110.301 235.666 110.288C238.869 110.433 242.066 109.891 245.042 108.697C248.273 107.266 250.236 103.642 250.437 100.11C250.457 98.8616 250.222 97.6224 249.746 96.468C249.271 95.3137 248.565 94.2683 247.672 93.3957Z" fill="#87CCE3"/>
<path d="M261.325 126.628C261.325 126.335 261.325 126.035 261.306 125.728C261.184 124.559 260.761 123.442 260.077 122.487C259.393 121.531 258.473 120.769 257.406 120.276C255.723 119.577 253.915 119.226 252.093 119.243C250.27 119.26 248.469 119.645 246.799 120.375C243.475 121.741 241.668 123.114 238.74 125.786C238.712 125.812 238.693 125.846 238.684 125.884C238.676 125.921 238.679 125.96 238.693 125.996C238.707 126.031 238.731 126.062 238.763 126.083C238.795 126.105 238.832 126.116 238.87 126.116C243.14 126.138 245.468 128.603 249.031 130.994C250.194 131.775 252.28 133.141 253.657 133.388C255.457 133.715 258.04 132.583 259.348 131.309C260 130.721 260.515 129.997 260.856 129.188C261.198 128.379 261.358 127.505 261.325 126.628Z" fill="#87CCE3"/>
<path d="M249.192 91.8769C244.407 87.1065 236.538 87.5538 231.155 91.0316C226.039 94.3359 222.914 99.7137 221.534 105.564C221.214 106.974 220.975 108.401 220.819 109.838C220.729 110.573 220.666 111.31 220.61 112.048C220.442 112.968 220.442 113.911 220.61 114.831C220.744 115.25 220.985 115.626 221.31 115.921C221.636 116.217 222.033 116.421 222.463 116.514C222.912 116.585 223.371 116.553 223.806 116.423C224.241 116.293 224.642 116.067 224.978 115.761C226.365 114.854 227.854 114.115 229.415 113.559C235.252 111.429 242.15 113.53 247.5 109.758C248.814 108.799 249.924 107.588 250.766 106.195C251.608 104.803 252.164 103.257 252.403 101.648C252.664 99.8807 252.509 98.0772 251.95 96.3808C251.391 94.6844 250.443 93.1421 249.182 91.8769C247.297 89.8491 244.263 92.8904 246.147 94.9129C247.147 95.9145 247.828 97.1897 248.105 98.5778C248.382 99.966 248.242 101.405 247.703 102.714C246.697 105.376 244.662 106.787 241.985 107.49C238.71 108.349 235.336 107.937 232.018 108.466C230.363 108.735 228.746 109.197 227.198 109.842C226.294 110.213 225.392 110.6 224.524 111.05C224.171 111.229 223.822 111.425 223.481 111.629C223.204 111.794 222.691 112.288 222.459 112.375H223.601L223.398 112.331L224.346 112.883L224.195 112.742L224.747 113.689C224.725 112.885 224.796 112.08 224.959 111.291C225.016 110.647 225.078 110.003 225.166 109.364C225.364 107.918 225.676 106.489 226.098 105.092C226.85 102.358 228.174 99.8146 229.982 97.6304C233.753 93.3529 241.421 90.1988 246.147 94.9129C248.115 96.8665 251.152 93.8314 249.192 91.8769Z" fill="#211715"/>
<path d="M263.468 126.631C263.505 124.359 262.69 122.156 261.185 120.454C259.525 118.73 257.32 117.632 254.944 117.347C250.072 116.519 245.112 118.161 241.152 121.008C240.287 121.634 239.453 122.301 238.647 122.997C237.596 123.905 236.192 124.896 236.605 126.496C236.997 128.01 238.283 128.18 239.601 128.294C240.538 128.382 241.451 128.644 242.293 129.065C244.154 130.132 245.939 131.328 247.634 132.644C249.263 133.759 251.112 135.074 253.084 135.464C254.307 135.631 255.551 135.547 256.74 135.216C257.929 134.885 259.038 134.314 259.998 133.538C261.076 132.737 261.951 131.694 262.554 130.494C263.156 129.294 263.469 127.97 263.468 126.627C263.536 123.863 259.243 123.864 259.175 126.627C259.158 127.544 258.867 128.435 258.338 129.185C257.809 129.934 257.068 130.508 256.209 130.831C255.521 131.187 254.744 131.337 253.973 131.262C252.973 130.959 252.034 130.481 251.2 129.852C249.322 128.665 247.595 127.241 245.708 126.064C243.662 124.754 241.296 124.03 238.868 123.969L239.951 124.263L239.811 124.203L240.795 125.486L240.743 125.353L240.527 127.007C240.836 126.688 241.177 126.401 241.545 126.15C241.935 125.811 242.328 125.474 242.734 125.154C243.412 124.62 244.126 124.133 244.871 123.698C246.694 122.558 248.728 121.798 250.851 121.461C254.529 121.002 259.166 122.256 259.17 126.624C259.179 129.393 263.473 129.398 263.468 126.631Z" fill="#211715"/>
<path d="M175.123 177.471C174.83 177.719 174.581 178.016 174.387 178.347C172.66 181.273 168.239 188.807 166.515 191.735C166.286 192.125 166.003 192.657 165.771 193.049C165.467 193.564 165.619 193.935 166.182 194.267C167.062 194.786 169.159 196.062 169.952 196.53L171.109 197.213C171.902 197.681 174.033 198.9 174.914 199.42C175.474 199.751 175.871 199.706 176.174 199.194C178.76 194.811 182.041 189.308 184.861 184.53C185.243 183.854 185.356 183.058 185.177 182.303C185.051 181.587 184.659 179.255 183.485 178.563L180.079 176.553C179.104 175.977 176.92 176.624 176.221 176.855C175.819 176.988 175.446 177.197 175.123 177.471Z" fill="white"/>
<path d="M94.3416 313.404C97.0904 307.894 99.7534 302.341 102.464 296.812C103.019 295.679 103.572 294.547 104.135 293.419C104.408 292.924 104.481 292.343 104.338 291.796C104.194 291.249 103.846 290.778 103.364 290.481C102.872 290.199 102.288 290.122 101.739 290.266C101.19 290.41 100.719 290.764 100.428 291.251C97.6066 296.904 94.8685 302.599 92.0902 308.273C91.6062 309.257 91.1259 310.252 90.6339 311.236C90.3605 311.731 90.288 312.312 90.4313 312.859C90.5747 313.406 90.923 313.877 91.4041 314.174C91.8971 314.456 92.4809 314.533 93.0301 314.389C93.5793 314.245 94.0502 313.891 94.3416 313.404Z" fill="#211715"/>
<path d="M109.47 322.305C112.941 317.266 116.424 312.236 119.921 307.214C120.628 306.192 121.335 305.169 122.043 304.145C122.325 303.652 122.402 303.068 122.258 302.519C122.114 301.97 121.76 301.499 121.272 301.208C120.778 300.932 120.196 300.858 119.649 301.001C119.101 301.145 118.631 301.495 118.336 301.978C114.774 307.148 111.2 312.309 107.613 317.462C106.996 318.356 106.379 319.248 105.763 320.137C105.481 320.63 105.403 321.214 105.547 321.763C105.691 322.313 106.045 322.784 106.533 323.075C107.027 323.351 107.609 323.425 108.157 323.281C108.704 323.138 109.175 322.788 109.47 322.305Z" fill="#211715"/>
<path d="M112.541 295.323L94.198 284.5C93.164 283.889 91.4913 283.259 90.9895 282.103C91.1057 282.371 90.8624 281.651 90.976 282.059C90.9545 281.917 90.9545 281.772 90.976 281.629C90.8991 282.076 91.0333 281.457 91.0583 281.41C90.824 281.857 91.1728 281.249 91.188 281.225C91.8401 280.167 92.452 279.084 93.0826 278.014C93.3066 277.696 93.5049 277.36 93.6757 277.01C93.6399 277.105 93.8751 277.003 93.6819 277.018C93.1899 277.055 93.8376 277.173 93.9583 277.21C94.9174 277.604 95.8303 278.102 96.6803 278.696L102.16 281.93L124.144 294.906L135.446 301.576C135.866 301.802 136.271 302.052 136.66 302.326C136.859 302.478 137.026 302.714 137.231 302.848C136.972 302.679 137.598 303.232 137.315 302.965C137.269 302.921 137.335 302.687 137.343 302.667C137.125 303.241 137.65 302.295 137.11 303.114C136.687 303.756 136.323 304.449 135.932 305.111C135.536 305.933 135.052 306.71 134.487 307.427C134.597 307.347 134.219 307.563 134.152 307.575C133.555 307.613 132.963 307.442 132.477 307.092C125.783 303.259 119.185 299.247 112.541 295.326C110.156 293.919 107.993 297.628 110.374 299.033C116.966 302.924 123.524 306.874 130.151 310.706C132.589 312.116 135.804 312.471 137.834 310.137C138.593 309.138 139.261 308.073 139.829 306.955C140.55 305.735 141.519 304.497 141.593 303.028C141.735 300.184 138.93 298.645 136.827 297.405L130.726 293.805L106.262 279.364L99.7324 275.513C97.6329 274.274 95.2249 272.392 92.6452 272.908C92.0287 273.051 91.4514 273.328 90.9539 273.72C90.4565 274.111 90.0512 274.607 89.7667 275.173C89.0323 276.388 88.3229 277.619 87.6011 278.84C86.9311 279.875 86.6286 281.105 86.7421 282.332C86.8557 283.559 87.3788 284.713 88.2272 285.607C89.5556 287.048 91.6263 287.968 93.3026 288.956L99.3558 292.529L110.371 299.029C112.759 300.438 114.922 296.728 112.541 295.323Z" fill="#211715"/>
<path d="M95.7609 323.72L82.7513 316.043C81.8553 315.648 81.0447 315.083 80.3647 314.379C80.2323 314.186 80.2932 314.325 80.2753 314.062C80.2753 314.037 80.2404 313.704 80.2753 313.924C80.3137 314.168 80.4023 313.65 80.2851 313.883C80.2064 314.037 80.5436 313.446 80.5857 313.374L81.2476 312.252C81.7812 311.584 82.2179 310.844 82.5446 310.054C82.6591 309.472 82.6564 310.097 82.533 309.988C82.4779 310.021 82.4205 310.051 82.3613 310.077C82.3514 310.095 82.1877 310.108 82.1824 310.064C82.1824 310.075 82.7101 310.201 82.7548 310.218C84.2855 310.931 85.752 311.776 87.1379 312.741L105.232 323.42L109.711 326.063C111.09 326.877 112.425 327.774 113.77 328.611C113.859 328.665 113.999 328.94 113.847 328.653C113.732 328.437 114.102 327.988 113.668 328.673C113.183 329.433 112.748 330.231 112.29 331.008C112.111 331.315 111.908 331.619 111.743 331.934C111.726 331.966 111.465 332.398 111.606 332.197C111.722 332.035 111.51 332.305 111.502 332.314C111.629 332.185 111.372 332.416 111.319 332.43C111.113 332.481 110.897 332.478 110.693 332.421C109.579 332.175 108.377 331.169 107.402 330.594L103.377 328.216L95.7618 323.721C93.3771 322.314 91.2142 326.023 93.5945 327.429L101.477 332.08L105.574 334.495C106.803 335.357 108.142 336.05 109.555 336.558C110.454 336.822 111.409 336.833 112.315 336.591C113.22 336.349 114.041 335.862 114.689 335.184C115.19 334.558 115.629 333.884 115.998 333.171C116.56 332.22 117.201 331.281 117.685 330.288C119.743 326.074 114.25 323.751 111.416 322.078L90.2893 309.612C88.5629 308.593 86.8553 307.424 85.0475 306.555C83.2397 305.687 81.1009 305.386 79.5498 306.913C78.9062 307.68 78.3613 308.524 77.9281 309.427C77.4808 310.183 76.9915 310.928 76.5863 311.707C76.19 312.449 75.9885 313.28 76.0005 314.122C76.0126 314.964 76.2378 315.788 76.6552 316.519C77.5694 318.09 79.175 318.915 80.6805 319.805L85.0564 322.387L93.59 327.424C95.9792 328.836 98.1412 325.125 95.7609 323.72Z" fill="#211715"/>
<path d="M121.376 255.431C123.51 256.691 125.639 257.961 127.775 259.22C128.018 259.362 128.287 259.455 128.566 259.493C128.846 259.532 129.13 259.515 129.403 259.443C129.675 259.371 129.931 259.247 130.156 259.076C130.381 258.906 130.569 258.693 130.712 258.449C130.854 258.206 130.947 257.937 130.985 257.658C131.023 257.378 131.006 257.094 130.935 256.821C130.863 256.549 130.739 256.293 130.568 256.068C130.398 255.843 130.185 255.655 129.941 255.512C127.807 254.253 125.678 252.984 123.544 251.723C123.3 251.581 123.031 251.488 122.752 251.45C122.472 251.411 122.188 251.428 121.915 251.5C121.643 251.571 121.386 251.696 121.162 251.866C120.937 252.037 120.748 252.25 120.606 252.493C120.464 252.737 120.371 253.006 120.332 253.285C120.294 253.565 120.311 253.849 120.383 254.122C120.454 254.394 120.579 254.65 120.749 254.875C120.92 255.1 121.133 255.289 121.376 255.431Z" fill="#211715"/>
<path d="M130.389 240.164C132.524 241.425 134.653 242.694 136.787 243.953C137.279 244.241 137.864 244.321 138.415 244.177C138.966 244.032 139.437 243.675 139.724 243.183C140.012 242.692 140.092 242.106 139.948 241.555C139.803 241.004 139.446 240.533 138.954 240.246C136.82 238.986 134.691 237.717 132.556 236.457C132.312 236.313 132.043 236.218 131.762 236.178C131.482 236.138 131.196 236.154 130.922 236.225C130.648 236.295 130.39 236.42 130.165 236.591C129.939 236.761 129.749 236.975 129.606 237.22C129.463 237.464 129.37 237.735 129.332 238.015C129.294 238.296 129.312 238.581 129.385 238.855C129.458 239.129 129.584 239.385 129.756 239.61C129.929 239.835 130.144 240.023 130.389 240.164Z" fill="#211715"/>
<path d="M148.402 209.633C150.536 210.893 152.665 212.163 154.799 213.422C155.043 213.565 155.312 213.658 155.591 213.696C155.87 213.734 156.155 213.717 156.427 213.646C156.7 213.574 156.956 213.45 157.181 213.279C157.405 213.109 157.594 212.896 157.736 212.653C157.879 212.409 157.972 212.14 158.01 211.861C158.048 211.581 158.031 211.297 157.96 211.025C157.888 210.752 157.764 210.496 157.594 210.271C157.423 210.047 157.21 209.858 156.967 209.715C154.832 208.455 152.704 207.186 150.568 205.926C150.077 205.644 149.494 205.567 148.946 205.713C148.399 205.859 147.931 206.215 147.645 206.704C147.359 207.193 147.278 207.776 147.42 208.325C147.562 208.873 147.915 209.344 148.402 209.633Z" fill="#211715"/>
<path d="M112.369 270.696C114.503 271.956 116.635 273.219 118.766 274.485C119.258 274.773 119.843 274.853 120.394 274.709C120.945 274.564 121.416 274.207 121.704 273.715C121.991 273.224 122.071 272.638 121.927 272.087C121.783 271.536 121.425 271.065 120.933 270.778C118.799 269.518 116.669 268.249 114.535 266.989C114.043 266.701 113.458 266.621 112.907 266.766C112.356 266.91 111.885 267.268 111.598 267.759C111.311 268.251 111.23 268.837 111.375 269.387C111.52 269.938 111.877 270.409 112.369 270.696Z" fill="#211715"/>
<path d="M139.391 224.899C141.467 226.124 143.54 227.352 145.612 228.583C146.103 228.871 146.689 228.951 147.24 228.807C147.791 228.662 148.262 228.305 148.549 227.813C148.837 227.321 148.917 226.736 148.773 226.185C148.628 225.634 148.271 225.163 147.779 224.876C145.704 223.651 143.634 222.417 141.559 221.192C141.067 220.905 140.482 220.824 139.931 220.969C139.38 221.113 138.909 221.47 138.622 221.962C138.334 222.453 138.254 223.039 138.398 223.59C138.543 224.141 138.9 224.611 139.391 224.899Z" fill="#211715"/>
<path d="M173.603 175.951C172.076 177.401 171.116 179.663 170.056 181.468C168.839 183.537 167.624 185.606 166.409 187.676L165.046 189.994C164.43 191.042 163.469 192.261 163.469 193.519C163.469 194.958 164.542 195.783 165.662 196.456C166.622 197.03 167.576 197.613 168.537 198.186C169.948 199.028 171.372 199.846 172.793 200.669C173.887 201.303 174.981 202.038 176.308 201.658C177.875 201.21 178.58 199.339 179.34 198.056C180.981 195.283 182.624 192.51 184.27 189.737C185.019 188.473 185.79 187.218 186.516 185.943C187.288 184.632 187.54 183.08 187.222 181.592C187.057 180.371 186.645 179.198 186.01 178.142C185.102 176.773 183.542 176.098 182.169 175.288C180.882 174.4 179.303 174.042 177.758 174.286C176.426 174.408 175.147 174.864 174.037 175.611C173.56 175.911 173.214 176.382 173.071 176.927C172.928 177.473 172.998 178.052 173.267 178.548C173.557 179.037 174.028 179.392 174.578 179.536C175.128 179.68 175.712 179.602 176.205 179.318C176.915 178.818 177.749 178.523 178.615 178.466C178.797 178.45 178.98 178.45 179.162 178.466C179.001 178.441 178.679 178.213 179.323 178.595C179.897 178.935 180.471 179.274 181.046 179.612C181.387 179.814 181.728 180.019 182.072 180.217C182.549 180.494 182.438 180.46 182.303 180.307C182.514 180.581 182.662 180.899 182.735 181.238C183.031 181.914 183.134 182.659 183.032 183.39C182.749 184.003 182.404 184.587 182.005 185.132C181.628 185.768 181.251 186.405 180.874 187.041C180.108 188.334 179.342 189.627 178.575 190.919C177.824 192.186 177.072 193.452 176.321 194.719L175.248 196.532C174.988 197.06 174.676 197.561 174.317 198.028L175.265 197.476C175.91 197.249 176.227 197.744 175.637 197.348C175.425 197.204 175.181 197.079 174.96 196.954L173.544 196.137C172.898 195.763 172.255 195.388 171.612 195.01C171.016 194.655 170.418 194.298 169.818 193.936L168.292 193.017C168.07 192.883 167.852 192.73 167.62 192.614C167.024 192.313 167.575 192.263 167.686 192.939V194.091C167.937 193.506 168.243 192.947 168.601 192.421L169.514 190.869L171.989 186.655L174.486 182.404C175.051 181.176 175.774 180.027 176.639 178.988C178.647 177.081 175.607 174.049 173.603 175.951Z" fill="#211715"/>
</g>
<defs>
<clipPath id="clip0_2382_1650">
<rect width="316" height="316" fill="white" transform="translate(76 76)"/>
</clipPath>
</defs>
</svg>
