<svg width="36" height="44" viewBox="0 0 36 44" fill="none" xmlns="http://www.w3.org/2000/svg">
<path d="M35.72 31.5499C35.0533 33.6868 34.002 35.8237 32.566 37.9605C30.3607 41.3111 28.164 42.9865 25.9759 42.9865C25.1382 42.9865 23.9415 42.7129 22.3859 42.1659C20.9157 41.6189 19.6251 41.3453 18.5139 41.3453C17.4711 41.3453 16.2573 41.6274 14.8726 42.1915C13.488 42.7728 12.3597 43.0634 11.4878 43.0634C8.8894 43.0634 6.3166 40.8496 3.76945 36.422C1.25648 31.9602 0 27.6608 0 23.5238C0 19.6262 0.965867 16.4294 2.8976 13.9335C4.82934 11.4718 7.25683 10.241 10.1801 10.241C11.4109 10.241 12.9238 10.4974 14.7188 11.0103C16.4967 11.5231 17.6762 11.7796 18.2575 11.7796C19.0267 11.7796 20.249 11.4889 21.9243 10.9077C23.668 10.3265 25.1467 10.0359 26.3605 10.0359C28.3948 10.0359 30.2154 10.5914 31.8223 11.7026C32.7113 12.318 33.6002 13.1728 34.4892 14.2669C33.1387 15.4122 32.1642 16.4208 31.5659 17.2927C30.4547 18.8996 29.8992 20.6689 29.8992 22.6007C29.8992 24.7205 30.4889 26.6266 31.6685 28.319C32.848 30.0114 34.1985 31.0883 35.72 31.5499ZM26.0784 1.47127C26.0784 2.51407 25.8305 3.67653 25.3348 4.95865C24.8219 6.24077 24.027 7.42033 22.95 8.49731C22.0269 9.42044 21.1038 10.0359 20.1806 10.3436C19.5481 10.5316 18.6592 10.6769 17.5138 10.7795C17.5651 8.23234 18.2318 6.03563 19.5139 4.18938C20.779 2.36021 22.9158 1.09518 25.9246 0.394287C25.9417 0.445572 25.963 0.539595 25.9887 0.676354C26.0143 0.813114 26.0357 0.907137 26.0528 0.958422C26.0528 1.0268 26.0571 1.11228 26.0656 1.21485C26.0741 1.31742 26.0784 1.40289 26.0784 1.47127Z" fill="white"/>
</svg>
