<svg width="45" height="42" viewBox="0 0 45 42" fill="none" xmlns="http://www.w3.org/2000/svg">
<path d="M0 30.6747V9.88036C0.000712329 9.20934 0.133675 8.54504 0.391285 7.92545C0.648896 7.30585 1.0261 6.7431 1.50134 6.26938C1.97658 5.79565 2.54053 5.42024 3.16094 5.16461C3.78136 4.90898 4.44608 4.77813 5.11709 4.77956H6.08945V2.24818C6.08945 1.888 6.23253 1.54258 6.48721 1.2879C6.74189 1.03322 7.08732 0.890137 7.44749 0.890137C7.80766 0.890137 8.15309 1.03322 8.40777 1.2879C8.66245 1.54258 8.80553 1.888 8.80553 2.24818V4.77956H18.0402V2.24818C18.0402 1.888 18.1833 1.54258 18.438 1.2879C18.6926 1.03322 19.0381 0.890137 19.3982 0.890137C19.7584 0.890137 20.1038 1.03322 20.3585 1.2879C20.6132 1.54258 20.7563 1.888 20.7563 2.24818V4.77956H29.9909V2.24818C29.9909 2.06984 30.0261 1.89324 30.0943 1.72848C30.1626 1.56371 30.2626 1.414 30.3887 1.2879C30.5148 1.16179 30.6645 1.06176 30.8293 0.993512C30.9941 0.925264 31.1706 0.890137 31.349 0.890137C31.5273 0.890137 31.7039 0.925264 31.8687 0.993512C32.0335 1.06176 32.1832 1.16179 32.3093 1.2879C32.4354 1.414 32.5354 1.56371 32.6037 1.72848C32.6719 1.89324 32.707 2.06984 32.707 2.24818V4.77956H35.1624C36.5147 4.781 37.8113 5.31887 38.7676 6.27514C39.7239 7.23141 40.2617 8.52799 40.2632 9.88036V14.5466C40.2632 14.9068 40.1201 15.2522 39.8654 15.5069C39.6107 15.7615 39.2653 15.9046 38.9051 15.9046C38.5449 15.9046 38.1995 15.7615 37.9448 15.5069C37.6902 15.2522 37.5471 14.9068 37.5471 14.5466V9.88036C37.5456 9.24833 37.2939 8.6426 36.847 8.19569C36.4001 7.74878 35.7944 7.49708 35.1624 7.49564H32.6907V10.2552C32.6907 10.6154 32.5476 10.9608 32.293 11.2155C32.0383 11.4701 31.6929 11.6132 31.3327 11.6132C30.9725 11.6132 30.6271 11.4701 30.3724 11.2155C30.1177 10.9608 29.9747 10.6154 29.9747 10.2552V7.49564H20.74V10.2552C20.74 10.6154 20.5969 10.9608 20.3422 11.2155C20.0875 11.4701 19.7421 11.6132 19.3819 11.6132C19.0218 11.6132 18.6763 11.4701 18.4217 11.2155C18.167 10.9608 18.0239 10.6154 18.0239 10.2552V7.49564H8.78923V10.2552C8.78923 10.6154 8.64615 10.9608 8.39147 11.2155C8.13679 11.4701 7.79137 11.6132 7.43119 11.6132C7.07102 11.6132 6.7256 11.4701 6.47091 11.2155C6.21623 10.9608 6.07315 10.6154 6.07315 10.2552V7.49564H5.11709C4.48557 7.49708 3.8804 7.74896 3.43435 8.19603C2.98831 8.64309 2.73781 9.24883 2.73781 9.88036V30.6747C2.73781 31.3057 2.98848 31.9109 3.43468 32.3571C3.88089 32.8033 4.48607 33.054 5.11709 33.054H17.4915C17.8517 33.054 18.1971 33.197 18.4518 33.4517C18.7065 33.7064 18.8496 34.0518 18.8496 34.412C18.8496 34.7722 18.7065 35.1176 18.4518 35.3723C18.1971 35.6269 17.8517 35.77 17.4915 35.77H5.11709C4.44633 35.7722 3.78174 35.642 3.16135 35.387C2.54097 35.1319 1.97698 34.757 1.50167 34.2837C1.02636 33.8104 0.649066 33.248 0.391389 32.6288C0.133712 32.0095 0.000710913 31.3454 0 30.6747ZM45 30.5443C45 32.6347 44.3799 34.678 43.2183 36.4159C42.0566 38.1537 40.4055 39.5079 38.4739 40.3071C36.5424 41.1063 34.4172 41.3146 32.3672 40.9056C30.3173 40.4966 28.4347 39.4887 26.9577 38.0095C25.4807 36.5302 24.4758 34.6461 24.0699 32.5955C23.6641 30.5449 23.8757 28.42 24.6778 26.4897C25.48 24.5594 26.8368 22.9104 28.5764 21.7514C30.316 20.5924 32.3604 19.9755 34.4507 19.9787C37.2492 19.9859 39.9307 21.1019 41.908 23.0822C43.8853 25.0626 44.9971 27.7458 45 30.5443ZM42.2839 30.5443C42.2861 28.9907 41.8271 27.4713 40.9652 26.1787C40.1033 24.8861 38.8771 23.8783 37.4421 23.283C36.007 22.6877 34.4276 22.5317 32.9038 22.8347C31.38 23.1376 29.9803 23.886 28.8821 24.985C27.7839 26.0839 27.0365 27.4841 26.7346 29.0081C26.4327 30.5321 26.5899 32.1114 27.1861 33.5461C27.7824 34.9807 28.791 36.2062 30.0843 37.0672C31.3775 37.9282 32.8971 38.3861 34.4507 38.3829C36.5274 38.3772 38.5173 37.5493 39.9852 36.0804C41.4531 34.6114 42.2796 32.621 42.2839 30.5443ZM38.5466 26.6494C38.4052 26.5409 38.2437 26.4613 38.0715 26.4154C37.8992 26.3694 37.7196 26.358 37.5429 26.3817C37.3662 26.4055 37.1959 26.4639 37.0419 26.5536C36.8879 26.6434 36.7531 26.7627 36.6453 26.9047L34.228 30.0717L33.3317 28.844C33.2373 28.6768 33.1085 28.5316 32.9538 28.4178C32.7991 28.304 32.622 28.2244 32.4342 28.1841C32.2465 28.1438 32.0523 28.1438 31.8646 28.184C31.6768 28.2243 31.4997 28.3039 31.345 28.4176C31.1903 28.5314 31.0614 28.6766 30.9669 28.8438C30.8725 29.011 30.8145 29.1963 30.7969 29.3875C30.7793 29.5787 30.8025 29.7715 30.8649 29.9531C30.9273 30.1347 31.0275 30.301 31.1589 30.4411L33.1253 33.1572C33.2515 33.3261 33.4155 33.4633 33.6041 33.5576C33.7928 33.6519 34.0008 33.7008 34.2117 33.7004C34.4225 33.7 34.6303 33.6507 34.8188 33.5564C35.0073 33.4622 35.1714 33.3255 35.2982 33.1572L38.7965 28.5507C38.9053 28.4096 38.9852 28.2484 39.0316 28.0764C39.078 27.9043 39.0899 27.7248 39.0667 27.5481C39.0435 27.3715 38.9856 27.2011 38.8963 27.0469C38.8071 26.8927 38.6882 26.7576 38.5466 26.6494ZM10.9458 16.0622H9.24553C8.88536 16.0622 8.53994 16.2052 8.28526 16.4599C8.03057 16.7146 7.88749 17.06 7.88749 17.4202C7.88749 17.7804 8.03057 18.1258 8.28526 18.3805C8.53994 18.6352 8.88536 18.7782 9.24553 18.7782H10.9458C11.306 18.7782 11.6514 18.6352 11.9061 18.3805C12.1608 18.1258 12.3038 17.7804 12.3038 17.4202C12.3038 17.06 12.1608 16.7146 11.9061 16.4599C11.6514 16.2052 11.306 16.0622 10.9458 16.0622ZM10.9458 25.2968H9.24553C8.88536 25.2968 8.53994 25.4399 8.28526 25.6946C8.03057 25.9493 7.88749 26.2947 7.88749 26.6549C7.88749 27.015 8.03057 27.3605 8.28526 27.6151C8.53994 27.8698 8.88536 28.0129 9.24553 28.0129H10.9458C11.306 28.0129 11.6514 27.8698 11.9061 27.6151C12.1608 27.3605 12.3038 27.015 12.3038 26.6549C12.3038 26.2947 12.1608 25.9493 11.9061 25.6946C11.6514 25.4399 11.306 25.2968 10.9458 25.2968ZM19.0397 16.0622H17.3395C16.9793 16.0622 16.6339 16.2052 16.3792 16.4599C16.1245 16.7146 15.9814 17.06 15.9814 17.4202C15.9814 17.7804 16.1245 18.1258 16.3792 18.3805C16.6339 18.6352 16.9793 18.7782 17.3395 18.7782H19.0397C19.3999 18.7782 19.7453 18.6352 20 18.3805C20.2547 18.1258 20.3978 17.7804 20.3978 17.4202C20.3978 17.06 20.2547 16.7146 20 16.4599C19.7453 16.2052 19.3999 16.0622 19.0397 16.0622ZM25.9549 16.0622C25.5947 16.0622 25.2493 16.2052 24.9946 16.4599C24.7399 16.7146 24.5968 17.06 24.5968 17.4202C24.5968 17.7804 24.7399 18.1258 24.9946 18.3805C25.2493 18.6352 25.5947 18.7782 25.9549 18.7782H27.6606C28.0207 18.7782 28.3661 18.6352 28.6208 18.3805C28.8755 18.1258 29.0186 17.7804 29.0186 17.4202C29.0186 17.06 28.8755 16.7146 28.6208 16.4599C28.3661 16.2052 28.0207 16.0622 27.6606 16.0622H25.9549ZM19.0397 25.2968H17.3395C16.9793 25.2968 16.6339 25.4399 16.3792 25.6946C16.1245 25.9493 15.9814 26.2947 15.9814 26.6549C15.9814 27.015 16.1245 27.3605 16.3792 27.6151C16.6339 27.8698 16.9793 28.0129 17.3395 28.0129H19.0397C19.3999 28.0129 19.7453 27.8698 20 27.6151C20.2547 27.3605 20.3978 27.015 20.3978 26.6549C20.3978 26.2947 20.2547 25.9493 20 25.6946C19.7453 25.4399 19.3999 25.2968 19.0397 25.2968Z" fill="#007A65"/>
</svg>
