<svg width="32" height="33" viewBox="0 0 32 33" fill="none" xmlns="http://www.w3.org/2000/svg">
<path opacity="0.1" fill-rule="evenodd" clip-rule="evenodd" d="M0 16.3306C0 7.49401 7.16344 0.330566 16 0.330566C24.8366 0.330566 32 7.49401 32 16.3306C32 25.1671 24.8366 32.3306 16 32.3306C7.16344 32.3306 0 25.1671 0 16.3306Z" fill="white"/>
<path fill-rule="evenodd" clip-rule="evenodd" d="M16.0029 7.79736C13.6853 7.79736 13.3945 7.8075 12.4843 7.84892C11.5758 7.89052 10.9557 8.03434 10.4131 8.24537C9.85189 8.46333 9.37579 8.75488 8.90148 9.22938C8.4268 9.70369 8.13525 10.1798 7.91658 10.7409C7.70502 11.2836 7.56102 11.9039 7.52013 12.812C7.47942 13.7222 7.46875 14.0132 7.46875 16.3308C7.46875 18.6483 7.47906 18.9383 7.52031 19.8485C7.56208 20.757 7.70591 21.3771 7.91675 21.9196C8.13489 22.4809 8.42645 22.957 8.90094 23.4313C9.37508 23.906 9.85117 24.1982 10.4121 24.4162C10.955 24.6272 11.5753 24.771 12.4836 24.8127C13.3938 24.8541 13.6845 24.8642 16.0018 24.8642C18.3195 24.8642 18.6095 24.8541 19.5197 24.8127C20.4282 24.771 21.049 24.6272 21.5919 24.4162C22.153 24.1982 22.6284 23.906 23.1025 23.4313C23.5772 22.957 23.8687 22.4809 24.0874 21.9198C24.2972 21.3771 24.4412 20.7568 24.4839 19.8487C24.5248 18.9385 24.5354 18.6483 24.5354 16.3308C24.5354 14.0132 24.5248 13.7224 24.4839 12.8122C24.4412 11.9037 24.2972 11.2836 24.0874 10.741C23.8687 10.1798 23.5772 9.70369 23.1025 9.22938C22.6278 8.75471 22.1532 8.46315 21.5914 8.24537C21.0474 8.03434 20.4269 7.89052 19.5185 7.84892C18.6082 7.8075 18.3185 7.79736 16.0002 7.79736H16.0029ZM15.2373 9.33513C15.4645 9.33478 15.718 9.33513 16.0028 9.33513C18.2813 9.33513 18.5513 9.34331 19.4511 9.3842C20.2831 9.42225 20.7346 9.56127 21.0354 9.67807C21.4337 9.83274 21.7176 10.0176 22.0161 10.3163C22.3147 10.615 22.4996 10.8994 22.6546 11.2976C22.7715 11.5981 22.9107 12.0497 22.9485 12.8817C22.9894 13.7812 22.9983 14.0514 22.9983 16.3288C22.9983 18.6062 22.9894 18.8764 22.9485 19.776C22.9105 20.608 22.7715 21.0595 22.6546 21.36C22.5 21.7582 22.3147 22.0418 22.0161 22.3402C21.7174 22.6389 21.4338 22.8238 21.0354 22.9785C20.735 23.0958 20.2831 23.2345 19.4511 23.2725C18.5515 23.3134 18.2813 23.3223 16.0028 23.3223C13.7242 23.3223 13.4542 23.3134 12.5546 23.2725C11.7226 23.2341 11.2711 23.0951 10.9701 22.9783C10.5719 22.8236 10.2874 22.6387 9.98874 22.3401C9.69007 22.0414 9.50518 21.7577 9.35016 21.3593C9.23335 21.0588 9.09415 20.6073 9.05629 19.7752C9.0154 18.8757 9.00722 18.6055 9.00722 16.3267C9.00722 14.0479 9.0154 13.7791 9.05629 12.8795C9.09433 12.0475 9.23335 11.596 9.35016 11.2952C9.50482 10.8969 9.69007 10.6125 9.98874 10.3138C10.2874 10.0151 10.5719 9.83025 10.9701 9.67523C11.2709 9.55789 11.7226 9.41922 12.5546 9.381C13.3418 9.34544 13.6469 9.33478 15.2373 9.333V9.33513ZM20.5579 10.752C19.9926 10.752 19.5339 11.2102 19.5339 11.7757C19.5339 12.341 19.9926 12.7997 20.5579 12.7997C21.1233 12.7997 21.5819 12.341 21.5819 11.7757C21.5819 11.2104 21.1233 10.752 20.5579 10.752ZM16.0029 11.9485C13.5828 11.9485 11.6206 13.9106 11.6206 16.3308C11.6206 18.7509 13.5828 20.7121 16.0029 20.7121C18.423 20.7121 20.3845 18.7509 20.3845 16.3308C20.3845 13.9106 18.423 11.9485 16.0029 11.9485ZM16.0029 13.4863C17.5737 13.4863 18.8473 14.7597 18.8473 16.3308C18.8473 17.9016 17.5737 19.1752 16.0029 19.1752C14.4318 19.1752 13.1584 17.9016 13.1584 16.3308C13.1584 14.7597 14.4318 13.4863 16.0029 13.4863Z" fill="white"/>
</svg>
