<svg width="49" height="48" viewBox="0 0 49 48" fill="none" xmlns="http://www.w3.org/2000/svg">
<g clip-path="url(#clip0_885_10281)">
<path d="M23.792 29.547L24.3993 29.0361C26.2044 27.5176 27.4988 25.4808 28.1071 23.2018C28.7155 20.9228 28.6083 18.5119 27.8002 16.2958C26.992 14.0798 25.522 12.1659 23.5894 10.8135C21.6567 9.46118 19.355 8.73584 16.9962 8.73584C14.6374 8.73584 12.3357 9.46118 10.403 10.8135C8.4704 12.1659 7.00036 14.0798 6.19221 16.2958C5.38406 18.5119 5.2769 20.9228 5.88525 23.2018C6.4936 25.4808 7.78804 27.5176 9.59307 29.0361L10.2004 29.547L9.47734 29.8742C6.50417 31.2197 3.94569 33.337 2.06788 36.006L23.792 29.547ZM23.792 29.547L24.5151 29.8742M23.792 29.547L24.5151 29.8742M24.5151 29.8742C27.4884 31.2197 30.0469 33.3372 31.9248 36.0064L31.9319 36.0165L31.9396 36.0263C32.0854 36.2132 32.1918 36.4278 32.2523 36.657C32.3127 36.8863 32.3259 37.1254 32.2911 37.3599C32.2563 37.5944 32.1742 37.8194 32.0499 38.0213C31.9255 38.2231 31.7614 38.3975 31.5675 38.534C31.3737 38.6705 31.1541 38.7662 30.9222 38.8152C30.6902 38.8643 30.4507 38.8657 30.2182 38.8194C29.9857 38.7731 29.765 38.68 29.5696 38.5458C29.3741 38.4117 29.208 38.2392 29.0812 38.0388L29.0748 38.0287L29.0679 38.0189C27.7072 36.0808 25.8998 34.4989 23.7987 33.4067C21.6975 32.3146 19.3642 31.7445 16.9962 31.7445C14.6282 31.7445 12.2949 32.3146 10.1937 33.4067C8.09256 34.4989 6.28521 36.0808 4.92449 38.0189L4.92337 38.0205C4.76341 38.2502 4.55014 38.4377 4.30182 38.5669C4.05351 38.6961 3.77756 38.7632 3.49764 38.7624L3.49457 38.7624C3.13557 38.7636 2.78527 38.6519 2.4932 38.4431L2.4908 38.4414M24.5151 29.8742L2.4908 38.4414M2.4908 38.4414C2.11222 38.1742 1.8551 37.7677 1.77581 37.3112C1.69655 36.8547 1.8015 36.3855 2.06764 36.0064L2.4908 38.4414ZM46.7863 38.439L46.7863 38.439C46.9749 38.3083 47.1356 38.1414 47.259 37.948C47.3825 37.7546 47.4663 37.5386 47.5056 37.3125C47.5448 37.0864 47.5387 36.8548 47.4877 36.6311C47.4367 36.4074 47.3416 36.1961 47.2082 36.0095L47.206 36.0064C45.3282 33.3372 42.7696 31.2197 39.7963 29.8742L39.0712 29.5461L39.6815 29.0353C41.4914 27.5203 42.7904 25.4845 43.4017 23.2048C44.013 20.9251 43.9069 18.5124 43.0978 16.2952C42.2887 14.078 40.8159 12.1641 38.88 10.8139C36.9441 9.46377 34.6391 8.74306 32.2789 8.74992L32.2766 8.74992C31.2263 8.74817 30.1808 8.89321 29.1706 9.18081L29.1616 9.18337L29.1616 9.18328C28.9372 9.24266 28.7269 9.34609 28.5429 9.48753C28.3588 9.62898 28.2048 9.80562 28.0897 10.0072C27.9746 10.2087 27.9007 10.4312 27.8724 10.6615C27.8441 10.8919 27.8619 11.1256 27.9247 11.3491C27.9876 11.5725 28.0943 11.7812 28.2386 11.963L27.8601 12.2634L28.2386 11.963C28.3829 12.1448 28.5619 12.2961 28.7652 12.408C28.9686 12.52 29.1921 12.5904 29.4229 12.6151C29.6537 12.6398 29.8871 12.6184 30.1095 12.552L30.1153 12.5503L30.1153 12.5504C30.8187 12.3497 31.5469 12.2485 32.2784 12.2499M46.7863 38.439L43.9399 38.3062L44.3486 38.0181C44.3485 38.0179 44.3484 38.0177 44.3482 38.0175C42.9847 36.0833 41.177 34.5045 39.0767 33.4139C36.9763 32.3232 34.6448 31.7525 32.278 31.7499H32.2775C31.8133 31.7499 31.3682 31.5655 31.04 31.2374C30.7118 30.9092 30.5275 30.464 30.5275 29.9999C30.5275 29.5358 30.7118 29.0907 31.04 28.7625C31.3682 28.4343 31.8133 28.2499 32.2775 28.2499C34.3992 28.2499 36.434 27.4071 37.9343 25.9068C39.4346 24.4065 40.2775 22.3717 40.2775 20.2499C40.2775 18.1282 39.4346 16.0934 37.9343 14.5931C36.4342 13.093 34.3998 12.2502 32.2784 12.2499M46.7863 38.439L46.7805 38.4431M46.7863 38.439L46.7805 38.4431M32.2784 12.2499L32.2775 12.7499V12.2499C32.2778 12.2499 32.2781 12.2499 32.2784 12.2499ZM40.0024 29.4187L40.2086 28.9631C40.2774 28.9943 40.3459 29.0258 40.4142 29.0577C40.28 29.1809 40.1427 29.3013 40.0024 29.4187ZM40.0024 29.4187L40.3234 29.8021C40.3825 29.7526 40.441 29.7027 40.4991 29.6522C40.3348 29.572 40.1693 29.4942 40.0024 29.4187ZM46.7805 38.4431C46.4885 38.6518 46.1385 38.7635 45.7797 38.7624L46.7805 38.4431ZM10.3444 15.8054C9.46539 17.121 8.9962 18.6677 8.9962 20.2499C8.9962 22.3717 9.83905 24.4065 11.3393 25.9068C12.8396 27.4071 14.8745 28.2499 16.9962 28.2499C18.5784 28.2499 20.1252 27.7807 21.4408 26.9017C22.7564 26.0226 23.7817 24.7732 24.3872 23.3114C24.9927 21.8496 25.1512 20.241 24.8425 18.6892C24.5338 17.1374 23.7719 15.7119 22.6531 14.5931C21.5342 13.4742 20.1088 12.7123 18.5569 12.4036C17.0051 12.095 15.3965 12.2534 13.9347 12.8589C12.4729 13.4644 11.2235 14.4898 10.3444 15.8054Z" fill="#007A65" stroke="#007A65"/>
</g>
<defs>
<clipPath id="clip0_885_10281">
<rect width="48" height="48" fill="white" transform="translate(0.5)"/>
</clipPath>
</defs>
</svg>
