<svg width="39" height="42" viewBox="0 0 39 42" fill="none" xmlns="http://www.w3.org/2000/svg">
<path d="M0 39.2337V2.93563C0.000243177 2.85688 0.0237312 2.77995 0.0675189 2.71449C0.111307 2.64904 0.173445 2.59797 0.246141 2.56768C0.318838 2.5374 0.398857 2.52925 0.476164 2.54427C0.553471 2.55928 0.624625 2.59679 0.680704 2.65208L19.5806 21.0837L0.680704 39.5172C0.624625 39.5725 0.553471 39.61 0.476164 39.625C0.398857 39.64 0.318838 39.6319 0.246141 39.6016C0.173445 39.5713 0.111307 39.5202 0.0675189 39.4548C0.0237312 39.3893 0.000243177 39.3124 0 39.2337ZM27.5052 28.6574L3.80714 41.7136L3.79236 41.7219C3.38412 41.9435 2.9962 41.3912 3.33055 41.0698L21.9072 23.3069L27.5052 28.6574ZM3.3324 1.09763C2.9962 0.776215 3.38412 0.223892 3.79421 0.44556L3.80898 0.453876L27.5052 13.5101L21.9072 18.8624L3.3324 1.09763ZM37.072 23.3928L30.4543 27.0373L24.2319 21.0837L30.4543 15.1329L37.072 18.7747C38.8721 19.7694 38.8721 22.398 37.072 23.3928Z" fill="white"/>
</svg>
