<svg width="75" height="49" viewBox="0 0 75 49" fill="none" xmlns="http://www.w3.org/2000/svg">
<path d="M75 31C75 40.9411 66.9411 49 57 49L30 49C27.2386 49 25 46.7614 25 44L25 10C25 4.47715 29.4772 -1.65037e-07 35 3.17786e-07L70 3.37758e-06C72.7614 3.61899e-06 75 2.23858 75 5L75 31Z" fill="#E8F5E9"/>
<g clip-path="url(#clip0_1095_9987)">
<path d="M49.03 3.038C48.6873 3.0127 48.3437 3.00002 48 3V1C48.3931 1.00019 48.786 1.01487 49.178 1.044L49.03 3.038ZM53.038 3.938C52.3969 3.69059 51.7385 3.49071 51.068 3.34L51.506 1.388C52.274 1.56 53.0247 1.788 53.758 2.072L53.038 3.938ZM55.778 5.358C55.4921 5.16728 55.1992 4.98716 54.9 4.818L55.886 3.078C56.5699 3.46532 57.2243 3.9025 57.844 4.386L56.614 5.964C56.3428 5.75247 56.064 5.551 55.778 5.36V5.358ZM59.446 8.938C59.0503 8.37599 58.6138 7.84389 58.14 7.346L59.588 5.966C60.1293 6.538 60.6273 7.14467 61.082 7.786L59.446 8.938ZM60.934 11.642C60.8029 11.3249 60.6601 11.0126 60.506 10.706L62.292 9.806C62.645 10.5082 62.9459 11.2355 63.192 11.982L61.292 12.608C61.1846 12.2817 61.0651 11.9595 60.934 11.642ZM61.994 16.656C61.9778 15.9687 61.9109 15.2835 61.794 14.606L63.764 14.266C63.8973 15.0393 63.9747 15.8193 63.996 16.606L61.994 16.656ZM61.732 19.732C61.7987 19.3933 61.8527 19.0533 61.894 18.712L63.88 18.958C63.7836 19.7383 63.6299 20.5103 63.42 21.268L61.492 20.734C61.584 20.4047 61.664 20.0707 61.732 19.732ZM59.828 24.49C60.196 23.9087 60.52 23.3033 60.8 22.674L62.628 23.484C62.308 24.204 61.938 24.896 61.518 25.56L59.828 24.49ZM57.9 26.9C58.144 26.656 58.3773 26.404 58.6 26.144L60.116 27.45C59.8594 27.7478 59.5919 28.0359 59.314 28.314L57.9 26.9Z" fill="#007A65"/>
<path d="M47.9984 3C45.6962 3.00017 43.4295 3.56809 41.3992 4.65348C39.3689 5.73886 37.6375 7.3082 36.3585 9.2225C35.0796 11.1368 34.2924 13.337 34.0668 15.6281C33.8412 17.9193 34.1841 20.2307 35.0652 22.3577C35.9462 24.4847 37.3382 26.3616 39.1179 27.8221C40.8975 29.2826 43.0099 30.2817 45.2679 30.7309C47.5259 31.1801 49.8598 31.0655 52.063 30.3973C54.2661 29.7291 56.2704 28.5278 57.8984 26.9L59.3124 28.314C57.4519 30.1756 55.1609 31.5495 52.6425 32.314C50.1241 33.0785 47.456 33.2101 44.8746 32.697C42.2932 32.1839 39.8781 31.042 37.8435 29.3725C35.8089 27.7029 34.2175 25.5573 33.2103 23.1258C32.2031 20.6942 31.8112 18.0518 32.0693 15.4325C32.3275 12.8133 33.2277 10.2982 34.6902 8.11004C36.1527 5.92187 38.1323 4.12822 40.4537 2.88801C42.7751 1.64779 45.3665 0.999303 47.9984 1V3Z" fill="#007A65"/>
<path d="M47 7C47.2652 7 47.5196 7.10536 47.7071 7.29289C47.8946 7.48043 48 7.73478 48 8V18.42L54.496 22.132C54.7196 22.2669 54.8815 22.4839 54.9473 22.7366C55.013 22.9893 54.9772 23.2577 54.8477 23.4844C54.7181 23.7111 54.5051 23.8782 54.254 23.9498C54.0029 24.0215 53.7337 23.9921 53.504 23.868L46.504 19.868C46.3509 19.7806 46.2237 19.6542 46.1352 19.5018C46.0467 19.3494 46.0001 19.1763 46 19V8C46 7.73478 46.1054 7.48043 46.2929 7.29289C46.4804 7.10536 46.7348 7 47 7Z" fill="#007A65"/>
</g>
<mask id="path-5-outside-1_1095_9987" maskUnits="userSpaceOnUse" x="0" y="3" width="34" height="34" fill="black">
<rect fill="white" y="3" width="34" height="34"/>
<path d="M32.858 29.8776C32.6686 29.6882 32.3617 29.6882 32.1723 29.8776L31.1147 30.9353L23.9005 23.721L26.6283 20.9931C26.741 20.8804 26.7912 20.7195 26.7623 20.5627C26.7334 20.406 26.6297 20.2734 26.4844 20.2081L23.5497 18.8892C23.3655 18.8066 23.1501 18.8456 23.008 18.9886L22.2984 19.6983L10.4579 7.85795C10.2685 7.66856 9.96165 7.66856 9.77225 7.85795L9.20209 8.42812L8.37169 7.59754C7.84517 7.0715 6.97017 7.08973 6.42045 7.63873L5.87225 8.18685L1.82765 4.14205C1.63826 3.95265 1.33144 3.95265 1.14205 4.14205C0.952652 4.33144 0.952652 4.63826 1.14205 4.82765L5.18661 8.87243L4.63873 9.42022C4.08949 9.96946 4.07102 10.8449 4.59754 11.3714L5.42815 12.2021L4.85795 12.7723C4.66856 12.9616 4.66856 13.2685 4.85795 13.4579L7.17424 15.7741L7.17472 15.7749L7.17543 15.7753L9.06155 17.6615L9.06203 17.6622L9.06274 17.6626L10.9489 19.5488L10.9493 19.5495L10.95 19.55L12.8362 21.4361L12.8366 21.4368L12.8374 21.4373L14.7235 23.3234L14.724 23.3241L14.7247 23.3246L16.6983 25.2982L15.9886 26.0078C15.8461 26.1501 15.8068 26.3658 15.8892 26.5495L17.2083 29.4844C17.2737 29.6297 17.4062 29.7337 17.563 29.7623C17.5923 29.7678 17.6217 29.7704 17.6506 29.7704C17.7779 29.7704 17.9015 29.7202 17.9934 29.6283L20.7211 26.9005L27.9352 34.1149L26.8778 35.1723C26.6884 35.3617 26.6884 35.6686 26.8778 35.858C26.9725 35.9527 27.0966 36 27.2206 36C27.3447 36 27.4688 35.9527 27.5634 35.858L32.858 30.5632C33.0473 30.3738 33.0473 30.067 32.858 29.8776ZM6.11364 11.5163L5.28314 10.6858C5.13447 10.5372 5.15294 10.2772 5.32434 10.1058L7.10606 8.32434C7.19981 8.23082 7.3196 8.183 7.43371 8.183C7.52841 8.183 7.61884 8.21615 7.68608 8.28338L8.51645 9.11375L7.3151 10.3151L6.11364 11.5163ZM15.7525 22.9812L17.6368 21.0971C17.8262 20.9077 17.8262 20.6009 17.6368 20.4115C17.4474 20.2221 17.1406 20.2221 16.9512 20.4115L15.0669 22.2956L13.8652 21.0939L15.0369 19.9223C15.2263 19.7332 15.2263 19.4261 15.0369 19.2367C14.8475 19.0473 14.5407 19.0473 14.3513 19.2367L13.1796 20.4083L11.9779 19.2066L13.8622 17.3224C14.0516 17.133 14.0516 16.8262 13.8622 16.6368C13.6728 16.4474 13.366 16.4474 13.1766 16.6368L11.2923 18.521L10.0906 17.3193L11.2623 16.1477C11.4517 15.9586 11.4517 15.6515 11.2623 15.4621C11.0729 15.2727 10.7661 15.2727 10.5767 15.4621L9.40498 16.6337L8.20327 15.432L10.0876 13.5478C10.277 13.3584 10.277 13.0516 10.0876 12.8622C9.8982 12.6728 9.59138 12.6728 9.40199 12.8622L7.51767 14.7464L5.88636 13.1151L8.00071 11.0007L9.54498 9.45668L9.54545 9.45597L10.1151 8.88636L21.6127 20.3838L19.4983 22.4982L17.3839 24.6126L15.7525 22.9812ZM17.8045 28.4458L16.911 26.4569L23.4574 19.9107L25.4456 20.8045L17.8045 28.4458ZM23.215 24.4067L30.429 31.6207L28.6207 33.4292L21.4067 26.215L23.215 24.4067Z"/>
</mask>
<path d="M32.858 29.8776C32.6686 29.6882 32.3617 29.6882 32.1723 29.8776L31.1147 30.9353L23.9005 23.721L26.6283 20.9931C26.741 20.8804 26.7912 20.7195 26.7623 20.5627C26.7334 20.406 26.6297 20.2734 26.4844 20.2081L23.5497 18.8892C23.3655 18.8066 23.1501 18.8456 23.008 18.9886L22.2984 19.6983L10.4579 7.85795C10.2685 7.66856 9.96165 7.66856 9.77225 7.85795L9.20209 8.42812L8.37169 7.59754C7.84517 7.0715 6.97017 7.08973 6.42045 7.63873L5.87225 8.18685L1.82765 4.14205C1.63826 3.95265 1.33144 3.95265 1.14205 4.14205C0.952652 4.33144 0.952652 4.63826 1.14205 4.82765L5.18661 8.87243L4.63873 9.42022C4.08949 9.96946 4.07102 10.8449 4.59754 11.3714L5.42815 12.2021L4.85795 12.7723C4.66856 12.9616 4.66856 13.2685 4.85795 13.4579L7.17424 15.7741L7.17472 15.7749L7.17543 15.7753L9.06155 17.6615L9.06203 17.6622L9.06274 17.6626L10.9489 19.5488L10.9493 19.5495L10.95 19.55L12.8362 21.4361L12.8366 21.4368L12.8374 21.4373L14.7235 23.3234L14.724 23.3241L14.7247 23.3246L16.6983 25.2982L15.9886 26.0078C15.8461 26.1501 15.8068 26.3658 15.8892 26.5495L17.2083 29.4844C17.2737 29.6297 17.4062 29.7337 17.563 29.7623C17.5923 29.7678 17.6217 29.7704 17.6506 29.7704C17.7779 29.7704 17.9015 29.7202 17.9934 29.6283L20.7211 26.9005L27.9352 34.1149L26.8778 35.1723C26.6884 35.3617 26.6884 35.6686 26.8778 35.858C26.9725 35.9527 27.0966 36 27.2206 36C27.3447 36 27.4688 35.9527 27.5634 35.858L32.858 30.5632C33.0473 30.3738 33.0473 30.067 32.858 29.8776ZM6.11364 11.5163L5.28314 10.6858C5.13447 10.5372 5.15294 10.2772 5.32434 10.1058L7.10606 8.32434C7.19981 8.23082 7.3196 8.183 7.43371 8.183C7.52841 8.183 7.61884 8.21615 7.68608 8.28338L8.51645 9.11375L7.3151 10.3151L6.11364 11.5163ZM15.7525 22.9812L17.6368 21.0971C17.8262 20.9077 17.8262 20.6009 17.6368 20.4115C17.4474 20.2221 17.1406 20.2221 16.9512 20.4115L15.0669 22.2956L13.8652 21.0939L15.0369 19.9223C15.2263 19.7332 15.2263 19.4261 15.0369 19.2367C14.8475 19.0473 14.5407 19.0473 14.3513 19.2367L13.1796 20.4083L11.9779 19.2066L13.8622 17.3224C14.0516 17.133 14.0516 16.8262 13.8622 16.6368C13.6728 16.4474 13.366 16.4474 13.1766 16.6368L11.2923 18.521L10.0906 17.3193L11.2623 16.1477C11.4517 15.9586 11.4517 15.6515 11.2623 15.4621C11.0729 15.2727 10.7661 15.2727 10.5767 15.4621L9.40498 16.6337L8.20327 15.432L10.0876 13.5478C10.277 13.3584 10.277 13.0516 10.0876 12.8622C9.8982 12.6728 9.59138 12.6728 9.40199 12.8622L7.51767 14.7464L5.88636 13.1151L8.00071 11.0007L9.54498 9.45668L9.54545 9.45597L10.1151 8.88636L21.6127 20.3838L19.4983 22.4982L17.3839 24.6126L15.7525 22.9812ZM17.8045 28.4458L16.911 26.4569L23.4574 19.9107L25.4456 20.8045L17.8045 28.4458ZM23.215 24.4067L30.429 31.6207L28.6207 33.4292L21.4067 26.215L23.215 24.4067Z" fill="#007A65"/>
<path d="M32.858 29.8776C32.6686 29.6882 32.3617 29.6882 32.1723 29.8776L31.1147 30.9353L23.9005 23.721L26.6283 20.9931C26.741 20.8804 26.7912 20.7195 26.7623 20.5627C26.7334 20.406 26.6297 20.2734 26.4844 20.2081L23.5497 18.8892C23.3655 18.8066 23.1501 18.8456 23.008 18.9886L22.2984 19.6983L10.4579 7.85795C10.2685 7.66856 9.96165 7.66856 9.77225 7.85795L9.20209 8.42812L8.37169 7.59754C7.84517 7.0715 6.97017 7.08973 6.42045 7.63873L5.87225 8.18685L1.82765 4.14205C1.63826 3.95265 1.33144 3.95265 1.14205 4.14205C0.952652 4.33144 0.952652 4.63826 1.14205 4.82765L5.18661 8.87243L4.63873 9.42022C4.08949 9.96946 4.07102 10.8449 4.59754 11.3714L5.42815 12.2021L4.85795 12.7723C4.66856 12.9616 4.66856 13.2685 4.85795 13.4579L7.17424 15.7741L7.17472 15.7749L7.17543 15.7753L9.06155 17.6615L9.06203 17.6622L9.06274 17.6626L10.9489 19.5488L10.9493 19.5495L10.95 19.55L12.8362 21.4361L12.8366 21.4368L12.8374 21.4373L14.7235 23.3234L14.724 23.3241L14.7247 23.3246L16.6983 25.2982L15.9886 26.0078C15.8461 26.1501 15.8068 26.3658 15.8892 26.5495L17.2083 29.4844C17.2737 29.6297 17.4062 29.7337 17.563 29.7623C17.5923 29.7678 17.6217 29.7704 17.6506 29.7704C17.7779 29.7704 17.9015 29.7202 17.9934 29.6283L20.7211 26.9005L27.9352 34.1149L26.8778 35.1723C26.6884 35.3617 26.6884 35.6686 26.8778 35.858C26.9725 35.9527 27.0966 36 27.2206 36C27.3447 36 27.4688 35.9527 27.5634 35.858L32.858 30.5632C33.0473 30.3738 33.0473 30.067 32.858 29.8776ZM6.11364 11.5163L5.28314 10.6858C5.13447 10.5372 5.15294 10.2772 5.32434 10.1058L7.10606 8.32434C7.19981 8.23082 7.3196 8.183 7.43371 8.183C7.52841 8.183 7.61884 8.21615 7.68608 8.28338L8.51645 9.11375L7.3151 10.3151L6.11364 11.5163ZM15.7525 22.9812L17.6368 21.0971C17.8262 20.9077 17.8262 20.6009 17.6368 20.4115C17.4474 20.2221 17.1406 20.2221 16.9512 20.4115L15.0669 22.2956L13.8652 21.0939L15.0369 19.9223C15.2263 19.7332 15.2263 19.4261 15.0369 19.2367C14.8475 19.0473 14.5407 19.0473 14.3513 19.2367L13.1796 20.4083L11.9779 19.2066L13.8622 17.3224C14.0516 17.133 14.0516 16.8262 13.8622 16.6368C13.6728 16.4474 13.366 16.4474 13.1766 16.6368L11.2923 18.521L10.0906 17.3193L11.2623 16.1477C11.4517 15.9586 11.4517 15.6515 11.2623 15.4621C11.0729 15.2727 10.7661 15.2727 10.5767 15.4621L9.40498 16.6337L8.20327 15.432L10.0876 13.5478C10.277 13.3584 10.277 13.0516 10.0876 12.8622C9.8982 12.6728 9.59138 12.6728 9.40199 12.8622L7.51767 14.7464L5.88636 13.1151L8.00071 11.0007L9.54498 9.45668L9.54545 9.45597L10.1151 8.88636L21.6127 20.3838L19.4983 22.4982L17.3839 24.6126L15.7525 22.9812ZM17.8045 28.4458L16.911 26.4569L23.4574 19.9107L25.4456 20.8045L17.8045 28.4458ZM23.215 24.4067L30.429 31.6207L28.6207 33.4292L21.4067 26.215L23.215 24.4067Z" stroke="#007A65" stroke-width="0.8" mask="url(#path-5-outside-1_1095_9987)"/>
<defs>
<clipPath id="clip0_1095_9987">
<rect width="32" height="32" fill="white" transform="translate(32 1)"/>
</clipPath>
</defs>
</svg>
