<svg width="59" height="49" viewBox="0 0 59 49" fill="none" xmlns="http://www.w3.org/2000/svg">
<path d="M59 31C59 40.9411 50.9411 49 41 49L14 49C11.2386 49 9 46.7614 9 44L9 10C9 4.47715 13.4772 -1.65037e-07 19 3.17786e-07L54 3.37758e-06C56.7614 3.61899e-06 59 2.23858 59 5L59 31Z" fill="#E8F5E9"/>
<g clip-path="url(#clip0_1084_9840)">
<path d="M21.7093 17.2918C21.8024 17.3847 21.8763 17.4951 21.9267 17.6166C21.9771 17.7381 22.0031 17.8683 22.0031 17.9998C22.0031 18.1314 21.9771 18.2616 21.9267 18.3831C21.8763 18.5046 21.8024 18.6149 21.7093 18.7078L15.7093 24.7078C15.6164 24.801 15.506 24.8748 15.3845 24.9253C15.263 24.9757 15.1328 25.0016 15.0013 25.0016C14.8697 25.0016 14.7395 24.9757 14.618 24.9253C14.4965 24.8748 14.3862 24.801 14.2933 24.7078L11.2933 21.7078C11.2003 21.6149 11.1265 21.5045 11.0762 21.383C11.0259 21.2615 11 21.1313 11 20.9998C11 20.8683 11.0259 20.7381 11.0762 20.6167C11.1265 20.4952 11.2003 20.3848 11.2933 20.2918C11.481 20.1041 11.7357 19.9986 12.0013 19.9986C12.1328 19.9986 12.263 20.0245 12.3844 20.0748C12.5059 20.1251 12.6163 20.1989 12.7093 20.2918L15.0013 22.5858L20.2933 17.2918C20.3862 17.1987 20.4965 17.1248 20.618 17.0744C20.7395 17.024 20.8697 16.998 21.0013 16.998C21.1328 16.998 21.263 17.024 21.3845 17.0744C21.506 17.1248 21.6164 17.1987 21.7093 17.2918Z" fill="#007A65"/>
<path d="M7 1C7.26522 1 7.51957 1.10536 7.70711 1.29289C7.89464 1.48043 8 1.73478 8 2V3H24V2C24 1.73478 24.1054 1.48043 24.2929 1.29289C24.4804 1.10536 24.7348 1 25 1C25.2652 1 25.5196 1.10536 25.7071 1.29289C25.8946 1.48043 26 1.73478 26 2V3H28C29.0609 3 30.0783 3.42143 30.8284 4.17157C31.5786 4.92172 32 5.93913 32 7V29C32 30.0609 31.5786 31.0783 30.8284 31.8284C30.0783 32.5786 29.0609 33 28 33H4C2.93913 33 1.92172 32.5786 1.17157 31.8284C0.421427 31.0783 0 30.0609 0 29V7C0 5.93913 0.421427 4.92172 1.17157 4.17157C1.92172 3.42143 2.93913 3 4 3H6V2C6 1.73478 6.10536 1.48043 6.29289 1.29289C6.48043 1.10536 6.73478 1 7 1ZM4 5C3.46957 5 2.96086 5.21071 2.58579 5.58579C2.21071 5.96086 2 6.46957 2 7V29C2 29.5304 2.21071 30.0391 2.58579 30.4142C2.96086 30.7893 3.46957 31 4 31H28C28.5304 31 29.0391 30.7893 29.4142 30.4142C29.7893 30.0391 30 29.5304 30 29V7C30 6.46957 29.7893 5.96086 29.4142 5.58579C29.0391 5.21071 28.5304 5 28 5H4Z" fill="#007A65"/>
<path d="M5 9C5 8.73478 5.10536 8.48043 5.29289 8.29289C5.48043 8.10536 5.73478 8 6 8H26C26.2652 8 26.5196 8.10536 26.7071 8.29289C26.8946 8.48043 27 8.73478 27 9V11C27 11.2652 26.8946 11.5196 26.7071 11.7071C26.5196 11.8946 26.2652 12 26 12H6C5.73478 12 5.48043 11.8946 5.29289 11.7071C5.10536 11.5196 5 11.2652 5 11V9Z" fill="#007A65"/>
</g>
<defs>
<clipPath id="clip0_1084_9840">
<rect width="32" height="32" fill="white" transform="translate(0 1)"/>
</clipPath>
</defs>
</svg>
