<svg width="63" height="49" viewBox="0 0 63 49" fill="none" xmlns="http://www.w3.org/2000/svg">
<path d="M62.5 31C62.5 40.9411 54.4411 49 44.5 49L17.5 49C14.7386 49 12.5 46.7614 12.5 44L12.5 10C12.5 4.47715 16.9772 -1.65037e-07 22.5 3.17786e-07L57.5 3.37758e-06C60.2614 3.61899e-06 62.5 2.23858 62.5 5L62.5 31Z" fill="#E8F5E9"/>
<g clip-path="url(#clip0_1084_9844)">
<path fill-rule="evenodd" clip-rule="evenodd" d="M16.5 9C16.7652 9 17.0196 9.10536 17.2071 9.29289C17.3946 9.48043 17.5 9.73478 17.5 10V11.268L18.598 10.634C18.7118 10.5673 18.8376 10.5238 18.9683 10.5059C19.0989 10.488 19.2318 10.4962 19.3593 10.5299C19.4868 10.5636 19.6064 10.6222 19.7112 10.7023C19.8159 10.7824 19.9038 10.8825 19.9698 10.9967C20.0357 11.1109 20.0784 11.237 20.0954 11.3678C20.1124 11.4986 20.1034 11.6314 20.0688 11.7587C20.0343 11.886 19.9749 12.0051 19.8941 12.1094C19.8133 12.2136 19.7126 12.3008 19.598 12.366L18.5 13L19.598 13.634C19.7126 13.6992 19.8133 13.7864 19.8941 13.8906C19.9749 13.9949 20.0343 14.114 20.0688 14.2413C20.1034 14.3686 20.1124 14.5014 20.0954 14.6322C20.0784 14.763 20.0357 14.8891 19.9698 15.0033C19.9038 15.1175 19.8159 15.2176 19.7112 15.2977C19.6064 15.3778 19.4868 15.4364 19.3593 15.4701C19.2318 15.5038 19.0989 15.512 18.9683 15.4941C18.8376 15.4762 18.7118 15.4327 18.598 15.366L17.5 14.732V16C17.5 16.2652 17.3946 16.5196 17.2071 16.7071C17.0196 16.8946 16.7652 17 16.5 17C16.2348 17 15.9804 16.8946 15.7929 16.7071C15.6054 16.5196 15.5 16.2652 15.5 16V14.732L14.402 15.366C14.2882 15.4327 14.1624 15.4762 14.0317 15.4941C13.9011 15.512 13.7682 15.5038 13.6407 15.4701C13.5132 15.4364 13.3936 15.3778 13.2888 15.2977C13.1841 15.2176 13.0962 15.1175 13.0302 15.0033C12.9643 14.8891 12.9216 14.763 12.9046 14.6322C12.8876 14.5014 12.8966 14.3686 12.9312 14.2413C12.9657 14.114 13.0251 13.9949 13.1059 13.8906C13.1867 13.7864 13.2874 13.6992 13.402 13.634L14.5 13L13.402 12.366C13.1742 12.2324 13.0085 12.0142 12.941 11.7589C12.8735 11.5036 12.9097 11.232 13.0417 11.0033C13.1738 10.7746 13.3909 10.6074 13.6457 10.5383C13.9006 10.4691 14.1724 10.5035 14.402 10.634L15.5 11.268V10C15.5 9.73478 15.6054 9.48043 15.7929 9.29289C15.9804 9.10536 16.2348 9 16.5 9ZM10.5 20C10.5 19.7348 10.6054 19.4804 10.7929 19.2929C10.9804 19.1054 11.2348 19 11.5 19H21.5C21.7652 19 22.0196 19.1054 22.2071 19.2929C22.3946 19.4804 22.5 19.7348 22.5 20C22.5 20.2652 22.3946 20.5196 22.2071 20.7071C22.0196 20.8946 21.7652 21 21.5 21H11.5C11.2348 21 10.9804 20.8946 10.7929 20.7071C10.6054 20.5196 10.5 20.2652 10.5 20ZM10.5 24C10.5 23.7348 10.6054 23.4804 10.7929 23.2929C10.9804 23.1054 11.2348 23 11.5 23H21.5C21.7652 23 22.0196 23.1054 22.2071 23.2929C22.3946 23.4804 22.5 23.7348 22.5 24C22.5 24.2652 22.3946 24.5196 22.2071 24.7071C22.0196 24.8946 21.7652 25 21.5 25H11.5C11.2348 25 10.9804 24.8946 10.7929 24.7071C10.6054 24.5196 10.5 24.2652 10.5 24Z" fill="#007A65"/>
<path d="M6.5 1H26.5C27.5609 1 28.5783 1.42143 29.3284 2.17157C30.0786 2.92172 30.5 3.93913 30.5 5V29C30.5 30.0609 30.0786 31.0783 29.3284 31.8284C28.5783 32.5786 27.5609 33 26.5 33H6.5C5.43913 33 4.42172 32.5786 3.67157 31.8284C2.92143 31.0783 2.5 30.0609 2.5 29V27H4.5V29C4.5 29.5304 4.71071 30.0391 5.08579 30.4142C5.46086 30.7893 5.96957 31 6.5 31H26.5C27.0304 31 27.5391 30.7893 27.9142 30.4142C28.2893 30.0391 28.5 29.5304 28.5 29V5C28.5 4.46957 28.2893 3.96086 27.9142 3.58579C27.5391 3.21071 27.0304 3 26.5 3H6.5C5.96957 3 5.46086 3.21071 5.08579 3.58579C4.71071 3.96086 4.5 4.46957 4.5 5V7H2.5V5C2.5 3.93913 2.92143 2.92172 3.67157 2.17157C4.42172 1.42143 5.43913 1 6.5 1Z" fill="#007A65"/>
<path d="M2.5 11V10C2.5 9.73478 2.60536 9.48043 2.79289 9.29289C2.98043 9.10536 3.23478 9 3.5 9C3.76522 9 4.01957 9.10536 4.20711 9.29289C4.39464 9.48043 4.5 9.73478 4.5 10V11H5.5C5.76522 11 6.01957 11.1054 6.20711 11.2929C6.39464 11.4804 6.5 11.7348 6.5 12C6.5 12.2652 6.39464 12.5196 6.20711 12.7071C6.01957 12.8946 5.76522 13 5.5 13H1.5C1.23478 13 0.98043 12.8946 0.792893 12.7071C0.605357 12.5196 0.5 12.2652 0.5 12C0.5 11.7348 0.605357 11.4804 0.792893 11.2929C0.98043 11.1054 1.23478 11 1.5 11H2.5ZM2.5 17V16C2.5 15.7348 2.60536 15.4804 2.79289 15.2929C2.98043 15.1054 3.23478 15 3.5 15C3.76522 15 4.01957 15.1054 4.20711 15.2929C4.39464 15.4804 4.5 15.7348 4.5 16V17H5.5C5.76522 17 6.01957 17.1054 6.20711 17.2929C6.39464 17.4804 6.5 17.7348 6.5 18C6.5 18.2652 6.39464 18.5196 6.20711 18.7071C6.01957 18.8946 5.76522 19 5.5 19H1.5C1.23478 19 0.98043 18.8946 0.792893 18.7071C0.605357 18.5196 0.5 18.2652 0.5 18C0.5 17.7348 0.605357 17.4804 0.792893 17.2929C0.98043 17.1054 1.23478 17 1.5 17H2.5ZM2.5 23V22C2.5 21.7348 2.60536 21.4804 2.79289 21.2929C2.98043 21.1054 3.23478 21 3.5 21C3.76522 21 4.01957 21.1054 4.20711 21.2929C4.39464 21.4804 4.5 21.7348 4.5 22V23H5.5C5.76522 23 6.01957 23.1054 6.20711 23.2929C6.39464 23.4804 6.5 23.7348 6.5 24C6.5 24.2652 6.39464 24.5196 6.20711 24.7071C6.01957 24.8946 5.76522 25 5.5 25H1.5C1.23478 25 0.98043 24.8946 0.792893 24.7071C0.605357 24.5196 0.5 24.2652 0.5 24C0.5 23.7348 0.605357 23.4804 0.792893 23.2929C0.98043 23.1054 1.23478 23 1.5 23H2.5Z" fill="#007A65"/>
</g>
<defs>
<clipPath id="clip0_1084_9844">
<rect width="32" height="32" fill="white" transform="translate(0.5 1)"/>
</clipPath>
</defs>
</svg>
