<svg width="32" height="33" viewBox="0 0 32 33" fill="none" xmlns="http://www.w3.org/2000/svg">
<path opacity="0.1" fill-rule="evenodd" clip-rule="evenodd" d="M0 16.3306C0 7.49401 7.16344 0.330566 16 0.330566C24.8366 0.330566 32 7.49401 32 16.3306C32 25.1671 24.8366 32.3306 16 32.3306C7.16344 32.3306 0 25.1671 0 16.3306Z" fill="white"/>
<path fill-rule="evenodd" clip-rule="evenodd" d="M22.6698 10.8301C23.4042 11.0316 23.9825 11.6253 24.1788 12.3793C24.5354 13.7459 24.5354 16.5972 24.5354 16.5972C24.5354 16.5972 24.5354 19.4484 24.1788 20.8151C23.9825 21.5691 23.4042 22.1628 22.6698 22.3644C21.339 22.7305 16.0021 22.7305 16.0021 22.7305C16.0021 22.7305 10.6652 22.7305 9.33425 22.3644C8.5999 22.1628 8.02157 21.5691 7.82531 20.8151C7.46875 19.4484 7.46875 16.5972 7.46875 16.5972C7.46875 16.5972 7.46875 13.7459 7.82531 12.3793C8.02157 11.6253 8.5999 11.0316 9.33425 10.8301C10.6652 10.4639 16.0021 10.4639 16.0021 10.4639C16.0021 10.4639 21.339 10.4639 22.6698 10.8301ZM14.4021 14.1971V19.5305L18.6688 16.8639L14.4021 14.1971Z" fill="white"/>
</svg>
